<svg width="35" height="29" viewBox="0 0 35 29" fill="white" xmlns="http://www.w3.org/2000/svg">
<path d="M32.948 0.9403C29.618 1.1286 22.9995 1.81399 18.9137 4.3061C18.6317 4.47805 18.4719 4.78382 18.4719 5.1035V27.1347C18.4719 27.834 19.2394 28.276 19.8865 27.9515C24.0903 25.8432 30.1698 25.268 33.1758 25.1106C34.2022 25.0567 35 24.2369 35 23.2542V2.79909C35.0006 1.7268 34.0673 0.877331 32.948 0.9403ZM16.0863 4.3061C12.0011 1.81399 5.38256 1.12921 2.05264 0.9403C0.933349 0.877331 0 1.7268 0 2.79909V23.2549C0 24.2381 0.797844 25.0579 1.82416 25.1112C4.83142 25.2686 10.914 25.8444 15.1177 27.9539C15.763 28.2778 16.5281 27.8364 16.5281 27.1389V5.0926C16.5281 4.77231 16.3689 4.47866 16.0863 4.3061Z"/>
</svg>
