<svg width="30" height="34" viewBox="0 0 30 34" fill="none" xmlns="http://www.w3.org/2000/svg">
<path d="M9.91071 19.125H7.23214C6.79018 19.125 6.42857 18.7664 6.42857 18.3281V15.6719C6.42857 15.2336 6.79018 14.875 7.23214 14.875H9.91071C10.3527 14.875 10.7143 15.2336 10.7143 15.6719V18.3281C10.7143 18.7664 10.3527 19.125 9.91071 19.125ZM17.1429 18.3281V15.6719C17.1429 15.2336 16.7812 14.875 16.3393 14.875H13.6607C13.2188 14.875 12.8571 15.2336 12.8571 15.6719V18.3281C12.8571 18.7664 13.2188 19.125 13.6607 19.125H16.3393C16.7812 19.125 17.1429 18.7664 17.1429 18.3281ZM23.5714 18.3281V15.6719C23.5714 15.2336 23.2098 14.875 22.7679 14.875H20.0893C19.6473 14.875 19.2857 15.2336 19.2857 15.6719V18.3281C19.2857 18.7664 19.6473 19.125 20.0893 19.125H22.7679C23.2098 19.125 23.5714 18.7664 23.5714 18.3281ZM17.1429 24.7031V22.0469C17.1429 21.6086 16.7812 21.25 16.3393 21.25H13.6607C13.2188 21.25 12.8571 21.6086 12.8571 22.0469V24.7031C12.8571 25.1414 13.2188 25.5 13.6607 25.5H16.3393C16.7812 25.5 17.1429 25.1414 17.1429 24.7031ZM10.7143 24.7031V22.0469C10.7143 21.6086 10.3527 21.25 9.91071 21.25H7.23214C6.79018 21.25 6.42857 21.6086 6.42857 22.0469V24.7031C6.42857 25.1414 6.79018 25.5 7.23214 25.5H9.91071C10.3527 25.5 10.7143 25.1414 10.7143 24.7031ZM23.5714 24.7031V22.0469C23.5714 21.6086 23.2098 21.25 22.7679 21.25H20.0893C19.6473 21.25 19.2857 21.6086 19.2857 22.0469V24.7031C19.2857 25.1414 19.6473 25.5 20.0893 25.5H22.7679C23.2098 25.5 23.5714 25.1414 23.5714 24.7031ZM30 7.4375V30.8125C30 32.5723 28.5603 34 26.7857 34H3.21429C1.43973 34 0 32.5723 0 30.8125V7.4375C0 5.67773 1.43973 4.25 3.21429 4.25H6.42857V0.796875C6.42857 0.358594 6.79018 0 7.23214 0H9.91071C10.3527 0 10.7143 0.358594 10.7143 0.796875V4.25H19.2857V0.796875C19.2857 0.358594 19.6473 0 20.0893 0H22.7679C23.2098 0 23.5714 0.358594 23.5714 0.796875V4.25H26.7857C28.5603 4.25 30 5.67773 30 7.4375ZM26.7857 30.4141V10.625H3.21429V30.4141C3.21429 30.6332 3.39509 30.8125 3.61607 30.8125H26.3839C26.6049 30.8125 26.7857 30.6332 26.7857 30.4141Z" fill="white"/>
</svg>
