<svg width="43" height="34" viewBox="0 0 43 34" fill="none" xmlns="http://www.w3.org/2000/svg">
<path d="M42.4049 17.9628L28.0708 32.4003C26.791 33.6893 24.5726 32.787 24.5726 30.9393V22.6893H12.9689C11.8341 22.6893 10.9212 21.7698 10.9212 20.6268V12.3768C10.9212 11.2339 11.8341 10.3143 12.9689 10.3143H24.5726V2.06433C24.5726 0.225265 26.7825 -0.685672 28.0708 0.60339L42.4049 15.0409C43.1984 15.8487 43.1984 17.155 42.4049 17.9628ZM16.3818 31.9706V28.5331C16.3818 27.9659 15.921 27.5018 15.3579 27.5018H8.19088C6.68069 27.5018 5.46059 26.2729 5.46059 24.7518V8.25183C5.46059 6.73073 6.68069 5.50183 8.19088 5.50183H15.3579C15.921 5.50183 16.3818 5.03776 16.3818 4.47058V1.03308C16.3818 0.46589 15.921 0.00182777 15.3579 0.00182777H8.19088C3.66883 0.00182777 0 3.69714 0 8.25183V24.7518C0 29.3065 3.66883 33.0018 8.19088 33.0018H15.3579C15.921 33.0018 16.3818 32.5378 16.3818 31.9706Z" fill="#666666"/>
</svg>
