<svg width="232" height="232" viewBox="0 0 232 232" fill="none" xmlns="http://www.w3.org/2000/svg">
<g filter="url(#filter0_d)">
<rect x="4.00879" width="223.004" height="224" rx="10" fill="#0098C7"/>
</g>
<g clip-path="url(#clip0)">
<path opacity="0.1" d="M100.359 209.511C114.339 209.511 125.671 207.682 125.671 205.425C125.671 203.168 114.339 201.338 100.359 201.338C86.38 201.338 75.0475 203.168 75.0475 205.425C75.0475 207.682 86.38 209.511 100.359 209.511Z" fill="#660606"/>
<path opacity="0.1" d="M12.5188 87.1118H31.9086V119.879H13.9339C13.8875 120.219 13.8411 120.556 13.7905 120.894H31.9065V147.315L31.8158 147.274C31.3012 147.012 30.7929 146.751 30.291 146.473L29.9641 146.29C29.4495 145.992 28.9413 145.676 28.4393 145.341C28.2622 145.226 28.085 145.106 27.91 144.98C25.0804 143.024 22.5087 140.543 20.284 137.623C20.2186 137.544 20.1574 137.461 20.0963 137.382C19.7884 136.966 19.4847 136.543 19.1894 136.111L18.8625 135.63C18.5167 135.107 18.1792 134.558 17.8544 134.009C17.8059 133.928 17.7595 133.847 17.711 133.769C16.3802 131.487 15.277 129.013 14.4253 126.403C14.3979 126.325 14.3747 126.238 14.3493 126.16C14.0836 125.331 13.8453 124.492 13.6386 123.634C13.5522 123.276 13.4657 122.912 13.394 122.552C13.3666 122.442 13.3455 122.335 13.3223 122.23C12.2488 116.982 12.1244 111.528 12.1244 106.102C12.1244 105.47 12.1244 104.834 12.1244 104.204C12.1244 102.013 12.1455 99.8088 12.175 97.6046C12.1848 97.0346 12.1947 96.4637 12.2045 95.892C12.2319 94.4382 12.2678 92.9818 12.3184 91.528C12.3311 91.1254 12.3458 90.7201 12.3627 90.3201C12.3627 90.0873 12.3796 89.8546 12.3922 89.6219C12.4323 88.7826 12.4724 87.9433 12.5188 87.1118Z" fill="#660606"/>
<path opacity="0.1" d="M31.9086 50.6266H21.271C23.0001 47.2717 24.8896 44.0481 26.9293 40.9731C28.509 38.5649 30.1708 36.2196 31.9086 33.9604V50.6266Z" fill="#660606"/>
<path opacity="0.1" d="M31.9086 51.6407V86.0973H12.5779C12.5779 85.9979 12.5905 85.896 12.599 85.7966C12.6158 85.5351 12.6327 85.2527 12.6517 84.9834C12.6707 84.667 12.696 84.3454 12.7192 84.0264C12.7424 83.7075 12.7719 83.3362 12.7993 82.9806C12.8267 82.625 12.8563 82.2903 12.8879 81.9478C12.9195 81.6052 12.9491 81.2601 12.9828 80.9202C13.0165 80.5803 13.0482 80.2325 13.084 79.89C13.1136 79.6076 13.1431 79.3252 13.1747 79.0402C13.219 78.6402 13.2654 78.2375 13.3139 77.8401C13.3139 77.7799 13.3287 77.7198 13.335 77.6623C13.6837 74.7486 14.1589 71.8604 14.7585 69.0102C15.386 66.0207 16.1874 63.0915 17.1564 60.2457C18.1844 57.2627 19.3898 54.3785 20.7628 51.6172L31.9086 51.6407Z" fill="#660606"/>
<path opacity="0.1" d="M36.5378 87.1118V119.882H77.9536V87.1118H36.5378ZM36.5378 120.894V149.036C36.774 149.096 37.0081 149.156 37.2422 149.206C37.5586 149.282 37.8749 149.35 38.1934 149.41C38.2545 149.41 38.3178 149.433 38.3811 149.441C38.5076 149.467 38.6362 149.488 38.7628 149.509C39.0812 149.564 39.3955 149.609 39.7224 149.645L40.1779 149.695L40.547 149.729C40.7473 149.747 40.9456 149.763 41.1438 149.771C41.2661 149.771 41.3884 149.771 41.5129 149.789H41.8039H42.1645C42.329 149.789 42.4935 149.789 42.6559 149.789H42.8668C43.0313 149.789 43.1958 149.789 43.3582 149.771H43.3688C43.4826 149.771 43.5965 149.771 43.7104 149.752C43.7427 149.755 43.7751 149.755 43.8074 149.752C43.9023 149.752 43.9972 149.752 44.09 149.737H44.1554L44.7881 149.674C44.999 149.65 45.2099 149.622 45.4208 149.593L45.8552 149.527C47.6276 149.22 49.3803 148.758 51.1002 148.144C54.9638 146.808 58.7347 144.939 62.6046 143.571C67.5965 141.806 73.1157 140.938 77.9368 143.087V120.889L36.5378 120.894ZM77.9536 50.6289V7.00252C73.4197 6.94071 68.8979 7.59797 64.4985 8.95832C54.0043 12.2241 44.5941 19.3099 36.5378 28.3594V50.6289H38.6088V51.6408H36.5315V86.113H77.9536V51.6408H47.1501V50.6289H77.9536ZM131.161 35.8924C128.567 35.7773 125.987 34.7602 123.653 33.1862C119.192 30.1793 115.622 25.5329 111.646 21.6135C103.373 13.4478 93.1108 8.51905 82.587 7.29798V50.6289H141.705L141.851 50.4354L131.161 35.8924ZM136.547 34.6975L142.258 42.4684V32.6632C140.337 32.9639 138.662 33.6621 136.547 34.6975ZM142.258 156.02V120.889H130.081C130.049 120.74 130.016 120.588 129.978 120.436C130.013 120.588 130.045 120.74 130.079 120.889H82.587V146.293C83.0383 146.709 83.4833 147.145 83.9241 147.6C84.4007 148.082 84.871 148.573 85.3434 149.065L85.818 149.551C86.0457 149.786 86.2756 150.016 86.5055 150.249C86.9652 150.709 87.4285 151.164 87.8953 151.614C88.1273 151.841 88.3635 152.064 88.5976 152.286C92.3293 155.822 96.2654 159.013 100.374 161.835C101.295 162.469 102.224 163.086 103.162 163.683C103.786 164.081 104.414 164.471 105.045 164.855C105.993 165.428 106.948 165.984 107.909 166.52C116.792 171.458 126.184 174.844 135.817 176.582C137.956 176.972 140.103 177.28 142.258 177.505V156.02H142.448H142.258ZM82.587 51.6408V86.113H142.258V51.6408H82.587ZM82.587 87.1118V119.882H142.258V87.1118H82.587ZM146.889 32.6162V43.577L154.18 33.6594C151.765 33.1714 149.334 32.8236 146.889 32.6162ZM146.889 87.1118V119.882H204.926V87.1118H146.889ZM204.721 158.624L204.932 120.894H146.889V177.889C150.628 178.083 154.371 178.027 158.105 177.722H158.17C159.95 177.581 161.725 177.378 163.495 177.115H163.535C172.962 175.75 182.179 172.695 190.897 168.045L204.721 158.624ZM216.122 92.4955C215.903 91.8575 215.677 91.2248 215.445 90.5972C215.024 89.4232 214.558 88.2623 214.087 87.1118H209.559V119.882H221.007C220.996 110.6 219.102 101.124 216.122 92.4955ZM209.559 120.889V153.35C212.784 149.52 215.509 145.135 217.47 140.122C219.83 134.085 220.905 127.551 220.998 120.894L209.559 120.889ZM209.559 77.5577V86.113H213.663C212.42 83.1738 211.05 80.3197 209.559 77.5629V77.5577ZM170.208 39.0483C169.907 38.9045 169.603 38.7607 169.299 38.6221C166.096 37.1515 162.822 35.9289 159.497 34.9616L148.342 50.1268L148.132 50.4171L148.275 50.6106H187.957C182.43 45.9007 176.472 42.0195 170.208 39.0483ZM189.134 51.6434H147.703L146.889 52.5664V86.113H154.024H204.922V69.8496C200.321 62.9503 195.01 56.8286 189.126 51.6408L189.134 51.6434Z" fill="#660606"/>
<path opacity="0.1" d="M31.9086 69.0207V86.0974H12.5779C12.5779 85.998 12.5905 85.896 12.599 85.7967C12.6158 85.5352 12.6327 85.2528 12.6517 84.9835C12.6707 84.6671 12.696 84.3455 12.7192 84.0265C12.7424 83.7075 12.7719 83.3362 12.7993 82.9806C12.8267 82.625 12.8563 82.2903 12.8879 81.9478C12.9195 81.6053 12.9491 81.2602 12.9828 80.9202C13.0165 80.5803 13.0482 80.2326 13.084 79.89C13.1136 79.6077 13.1431 79.3253 13.1747 79.0403C13.219 78.6402 13.2654 78.2375 13.3139 77.8401C13.3139 77.78 13.3287 77.7198 13.335 77.6623C13.6837 74.7487 14.1589 71.8605 14.7585 69.0103L31.9086 69.0207Z" fill="#660606"/>
<path opacity="0.1" d="M12.5188 87.1118H31.9086V119.879H13.9339C13.8875 120.219 13.8411 120.556 13.7905 120.894H31.9065V147.315L31.8158 147.274C31.3012 147.012 30.7929 146.751 30.291 146.473L29.9641 146.29C29.4495 145.992 28.9413 145.676 28.4393 145.341C28.2622 145.226 28.085 145.106 27.91 144.98C25.0804 143.024 22.5087 140.543 20.284 137.623C20.2186 137.544 20.1574 137.461 20.0963 137.382C19.7884 136.966 19.4847 136.543 19.1894 136.111L18.8625 135.63C18.5167 135.107 18.1792 134.558 17.8544 134.009C17.8059 133.928 17.7595 133.847 17.711 133.769C16.3802 131.487 15.277 129.013 14.4253 126.403C14.3979 126.325 14.3747 126.238 14.3493 126.16C14.0836 125.331 13.8453 124.492 13.6386 123.634C13.5522 123.276 13.4657 122.912 13.394 122.552C13.3666 122.442 13.3455 122.335 13.3223 122.23C12.2488 116.982 12.1244 111.528 12.1244 106.102C12.1244 105.47 12.1244 104.834 12.1244 104.204C12.1244 102.013 12.1455 99.8088 12.175 97.6046C12.1848 97.0346 12.1947 96.4637 12.2045 95.892C12.2319 94.4382 12.2678 92.9818 12.3184 91.528C12.3311 91.1254 12.3458 90.7201 12.3627 90.3201C12.3627 90.0873 12.3796 89.8546 12.3922 89.6219C12.4323 88.7826 12.4724 87.9433 12.5188 87.1118Z" fill="#660606"/>
<path opacity="0.1" d="M51.1191 56.5746V86.0999H36.5398V56.5746H38.6171V46.5786H47.1521V56.5746H51.1191Z" fill="#660606"/>
<path opacity="0.1" d="M51.1191 87.1118H36.5398V119.882H51.1191V87.1118Z" fill="#660606"/>
<path opacity="0.1" d="M36.5377 120.889H51.117V148.142C49.3975 148.753 47.6456 149.214 45.8741 149.522L45.4375 149.59L44.8049 149.671L44.1722 149.734H44.1068C44.014 149.734 43.9191 149.75 43.8242 149.752H43.7272C43.6112 149.752 43.4973 149.768 43.3834 149.771H43.3729C43.2105 149.771 43.0481 149.786 42.8815 149.789H42.6706C42.5082 149.789 42.3458 149.789 42.1792 149.789H41.8207C41.7216 149.789 41.6245 149.789 41.5275 149.789L41.1585 149.771C40.9623 149.771 40.762 149.745 40.5616 149.729L40.1947 149.695L39.737 149.643C39.4165 149.606 39.1043 149.562 38.7795 149.507L38.3978 149.441C38.3346 149.441 38.2713 149.42 38.2101 149.407C37.8917 149.347 37.5774 149.282 37.259 149.206C37.0228 149.154 36.7887 149.093 36.5525 149.033L36.5377 120.889Z" fill="#660606"/>
<path opacity="0.1" d="M142.26 53.0894H130.237V86.1H142.26V53.0894Z" fill="#660606"/>
<path opacity="0.1" d="M142.26 87.1118V119.882H82.5891V105.749H114.373V114.085H130.237V87.1118H142.26Z" fill="#660606"/>
<path opacity="0.1" d="M142.45 156.031H142.26V177.529C140.105 177.302 137.958 176.994 135.819 176.606C126.185 174.859 116.793 171.463 107.911 166.515C105.348 165.083 102.837 163.521 100.376 161.83C96.2652 159.006 92.3264 155.814 88.5912 152.278C87.652 151.389 86.7261 150.479 85.8137 149.546C85.181 148.898 84.5483 148.239 83.9156 147.593C83.4748 147.151 83.0298 146.712 82.5764 146.286V120.889H130.079L129.98 120.437C130.015 120.588 130.049 120.737 130.081 120.889H142.26V156.015L142.45 156.031Z" fill="#660606"/>
<path opacity="0.1" d="M173.612 50.6264H165.779V47.609H169.289V38.6196C169.592 38.7582 169.896 38.8994 170.198 39.0458V47.609H173.61L173.612 50.6264Z" fill="#660606"/>
<path opacity="0.1" d="M192.489 86.0977H154.028L154.041 86.1108L154.024 86.0977H146.889V53.087H148.908V77.4849H158.145V63.0491H165.779V51.6411H173.61V63.0491H181.24V77.4849H192.487L192.489 86.0977Z" fill="#660606"/>
<path opacity="0.1" d="M146.889 87.1118V119.882H192.489V87.1118H146.889ZM204.863 158.449L204.926 132.511H192.483V120.889H146.889V177.889C150.627 178.083 154.371 178.027 158.105 177.722H158.17C159.95 177.581 161.725 177.378 163.495 177.115H163.535C172.962 175.75 182.179 172.695 190.897 168.045" fill="#660606"/>
<path opacity="0.1" d="M210.363 120.889H221C220.907 127.543 219.83 134.077 217.47 140.115C215.511 145.13 212.784 149.528 209.561 153.345V132.508H210.363V120.889Z" fill="#660606"/>
<path opacity="0.1" d="M221.007 119.88H210.363V92.4932H216.122C219.102 101.124 220.998 110.6 221.007 119.88Z" fill="#660606"/>
<path opacity="0.1" d="M142.26 62.2646H135.819V72.6136H142.26V62.2646Z" fill="#660606"/>
<path opacity="0.1" d="M142.26 83.7183H135.819V86.1003H142.26V83.7183Z" fill="#660606"/>
<path opacity="0.1" d="M142.26 87.1118H135.819V94.0643H142.26V87.1118Z" fill="#660606"/>
<path opacity="0.1" d="M142.26 105.169H135.819V115.518H142.26V105.169Z" fill="#660606"/>
<path opacity="0.1" d="M142.26 126.623H135.819V136.972H142.26V126.623Z" fill="#660606"/>
<path opacity="0.1" d="M142.26 156.015L142.45 156.03H142.26V158.433H135.819V148.082H142.26V156.015Z" fill="#660606"/>
<path opacity="0.1" d="M142.26 169.522V177.515C140.105 177.289 137.958 176.981 135.819 176.592V169.522H142.26Z" fill="#660606"/>
<path opacity="0.1" d="M110.191 119.121H82.5891V119.882H110.191V119.121Z" fill="#660606"/>
<path opacity="0.1" d="M110.191 120.894H82.5891V123.807H110.191V120.894Z" fill="#660606"/>
<path opacity="0.1" d="M110.191 133.358H82.5891V138.044H110.191V133.358Z" fill="#660606"/>
<path opacity="0.1" d="M110.189 147.595V152.278H88.5912C87.652 151.389 86.7262 150.478 85.8137 149.546C85.181 148.897 84.5483 148.238 83.9156 147.595H110.189Z" fill="#660606"/>
<path opacity="0.1" d="M110.189 161.827V166.515H107.911C105.347 165.082 102.835 163.52 100.376 161.827H110.189Z" fill="#660606"/>
<path opacity="0.1" d="M163.54 90.2886H158.107V97.0241H163.54V90.2886Z" fill="#660606"/>
<path opacity="0.1" d="M45.8868 58.8994H40.4541V65.6349H45.8868V58.8994Z" fill="#660606"/>
<path opacity="0.1" d="M45.8868 74.5459H40.4541V81.2814H45.8868V74.5459Z" fill="#660606"/>
<path opacity="0.1" d="M45.8868 90.1948H40.4541V96.9303H45.8868V90.1948Z" fill="#660606"/>
<path opacity="0.1" d="M45.8868 105.844H40.4541V112.579H45.8868V105.844Z" fill="#660606"/>
<path opacity="0.1" d="M45.8868 121.493H40.4541V128.228H45.8868V121.493Z" fill="#660606"/>
<path opacity="0.1" d="M45.8868 137.142H40.4541V143.877H45.8868V137.142Z" fill="#660606"/>
<path opacity="0.1" d="M184.283 90.2886H178.851V97.0241H184.283V90.2886Z" fill="#660606"/>
<path opacity="0.1" d="M163.54 106.905H158.107V113.641H163.54V106.905Z" fill="#660606"/>
<path opacity="0.1" d="M184.283 106.905H178.851V113.641H184.283V106.905Z" fill="#660606"/>
<path opacity="0.1" d="M163.54 123.521H158.107V130.257H163.54V123.521Z" fill="#660606"/>
<path opacity="0.1" d="M184.283 123.521H178.851V130.257H184.283V123.521Z" fill="#660606"/>
<path opacity="0.1" d="M163.54 140.138H158.107V146.874H163.54V140.138Z" fill="#660606"/>
<path opacity="0.1" d="M184.283 140.138H178.851V146.874H184.283V140.138Z" fill="#660606"/>
<path opacity="0.1" d="M163.54 156.754H158.107V163.49H163.54V156.754Z" fill="#660606"/>
<path opacity="0.1" d="M184.283 156.754H178.851V163.49H184.283V156.754Z" fill="#660606"/>
<path opacity="0.1" d="M158.107 177.714V173.371H163.54V177.097L158.107 177.714Z" fill="#660606"/>
<path opacity="0.1" d="M13.3118 77.6729V81.5269H31.9065V77.6729H13.3118ZM15.1634 81.2864H13.6387V77.916H15.1634V81.2864ZM17.0151 81.2864H15.4903V77.916H17.0151V81.2864ZM18.8626 81.2864H17.3378V77.916H18.8626V81.2864ZM20.7142 81.2864H19.1894V77.916H20.7142V81.2864ZM22.5638 81.2864H21.039V77.916H22.5638V81.2864ZM24.4155 81.2864H22.8907V77.916H24.4155V81.2864ZM26.2671 81.2864H24.7423V77.916H26.2671V81.2864ZM28.1167 81.2864H26.5877V77.916H28.1125L28.1167 81.2864ZM29.9663 81.2864H28.4415V77.916H29.962L29.9663 81.2864ZM31.8158 81.2864H30.291V77.916H31.8158V81.2864Z" fill="#660606"/>
<path opacity="0.1" d="M13.3118 88.8926V92.7467H31.9065V88.8926H13.3118ZM15.1634 92.5035H13.6387V89.1357H15.1634V92.5035ZM17.0151 92.5035H15.4903V89.1357H17.0151V92.5035ZM18.8626 92.5035H17.3378V89.1357H18.8626V92.5035ZM20.7142 92.5035H19.1894V89.1357H20.7142V92.5035ZM22.5638 92.5035H21.039V89.1357H22.5638V92.5035ZM24.4155 92.5035H22.8907V89.1357H24.4155V92.5035ZM26.2671 92.5035H24.7423V89.1357H26.2671V92.5035ZM28.1167 92.5035H26.5877V89.1357H28.1125L28.1167 92.5035ZM29.9663 92.5035H28.4415V89.1357H29.962L29.9663 92.5035ZM31.8158 92.5035H30.291V89.1357H31.8158V92.5035Z" fill="#660606"/>
<path opacity="0.1" d="M13.3118 100.112V103.964H31.9065V100.112H13.3118ZM15.1634 103.721H13.6387V100.353H15.1634V103.721ZM17.0151 103.721H15.4903V100.353H17.0151V103.721ZM18.8626 103.721H17.3378V100.353H18.8626V103.721ZM20.7142 103.721H19.1894V100.353H20.7142V103.721ZM22.5638 103.721H21.039V100.353H22.5638V103.721ZM24.4155 103.721H22.8907V100.353H24.4155V103.721ZM26.2671 103.721H24.7423V100.353H26.2671V103.721ZM28.1167 103.721H26.5877V100.353H28.1125L28.1167 103.721ZM29.9663 103.721H28.4415V100.353H29.962L29.9663 103.721ZM31.8158 103.721H30.291V100.353H31.8158V103.721Z" fill="#660606"/>
<path opacity="0.1" d="M13.3118 111.329V115.181H31.9065V111.329H13.3118ZM15.1634 114.94H13.6387V111.57H15.1634V114.94ZM17.0151 114.94H15.4903V111.57H17.0151V114.94ZM18.8626 114.94H17.3378V111.57H18.8626V114.94ZM20.7142 114.94H19.1894V111.57H20.7142V114.94ZM22.5638 114.94H21.039V111.57H22.5638V114.94ZM24.4155 114.94H22.8907V111.57H24.4155V114.94ZM26.2671 114.94H24.7423V111.57H26.2671V114.94ZM28.1167 114.94H26.5877V111.57H28.1125L28.1167 114.94ZM29.9663 114.94H28.4415V111.57H29.962L29.9663 114.94ZM31.8158 114.94H30.291V111.57H31.8158V114.94Z" fill="#660606"/>
<path opacity="0.1" d="M13.3918 122.546C13.4657 122.91 13.55 123.271 13.6386 123.629V122.79H15.1634V126.157H14.3556C14.3788 126.236 14.4041 126.319 14.4295 126.398H31.9128V122.546H13.3918ZM17.015 126.157H15.4903V122.79H17.015V126.157ZM18.8625 126.157H17.3377V122.79H18.8625V126.157ZM20.7142 126.157H19.1894V122.79H20.7142V126.157ZM22.5637 126.157H21.0389V122.79H22.5637V126.157ZM24.4154 126.157H22.8906V122.79H24.4154V126.157ZM26.2671 126.157H24.7423V122.79H26.2671V126.157ZM28.1166 126.157H26.5876V122.79H28.1124L28.1166 126.157ZM29.9662 126.157H28.4414V122.79H29.962L29.9662 126.157ZM31.8157 126.157H30.291V122.79H31.8157V126.157Z" fill="#660606"/>
<path opacity="0.1" d="M17.709 133.766C17.7575 133.842 17.8039 133.926 17.8524 134.007H18.8626V135.625L19.1895 136.109V134.017H20.7143V137.387H20.0963C20.1575 137.466 20.2165 137.55 20.284 137.628H31.9065V133.766H17.709ZM22.5596 137.377H21.0348V134.007H22.5596V137.377ZM24.4113 137.377H22.8865V134.007H24.4113V137.377ZM26.2629 137.377H24.7382V134.007H26.2629V137.377ZM28.1125 137.377H26.5877V134.007H28.1125V137.377ZM29.9621 137.377H28.4373V134.007H29.9621V137.377ZM31.8116 137.377H30.2868V134.007H31.8116V137.377Z" fill="#660606"/>
<path opacity="0.1" d="M27.91 144.983C28.0851 145.106 28.2622 145.227 28.4415 145.342V145.224H29.9621V146.291L30.2868 146.476V145.224H31.8116V147.274C31.841 147.291 31.8713 147.305 31.9023 147.316V144.983H27.91Z" fill="#660606"/>
<path opacity="0.1" d="M142.258 156.015H142.448H142.258ZM129.977 120.455C130.013 120.606 130.045 120.758 130.079 120.907C130.049 120.745 130.015 120.593 129.977 120.442V120.455ZM38.6088 50.6289V51.6408H47.1501V50.6289H38.6088ZM142.258 156.015H142.448H142.258ZM129.977 120.455C130.013 120.606 130.045 120.758 130.079 120.907C130.049 120.745 130.015 120.593 129.977 120.442V120.455ZM142.258 156.015H142.448H142.258ZM129.977 120.455C130.013 120.606 130.045 120.758 130.079 120.907C130.049 120.745 130.015 120.593 129.977 120.442V120.455Z" fill="#660606"/>
<path opacity="0.1" d="M184.19 40.6174C186.71 40.6174 188.752 38.0853 188.752 34.9618C188.752 31.8383 186.71 29.3062 184.19 29.3062C181.671 29.3062 179.629 31.8383 179.629 34.9618C179.629 38.0853 181.671 40.6174 184.19 40.6174Z" fill="#660606"/>
<path opacity="0.1" d="M204.439 53.2673C206.42 53.2673 208.026 51.276 208.026 48.8197C208.026 46.3633 206.42 44.3721 204.439 44.3721C202.457 44.3721 200.851 46.3633 200.851 48.8197C200.851 51.276 202.457 53.2673 204.439 53.2673Z" fill="#660606"/>
<path opacity="0.1" d="M214.473 28.9555C215.172 28.9555 215.739 28.2531 215.739 27.3867C215.739 26.5203 215.172 25.8179 214.473 25.8179C213.774 25.8179 213.208 26.5203 213.208 27.3867C213.208 28.2531 213.774 28.9555 214.473 28.9555Z" fill="#660606"/>
<path opacity="0.1" d="M170.031 216.357C180.708 216.357 189.364 213.898 189.364 210.866C189.364 207.833 180.708 205.375 170.031 205.375C159.354 205.375 150.698 207.833 150.698 210.866C150.698 213.898 159.354 216.357 170.031 216.357Z" fill="#660606"/>
<path d="M179.949 203.427C179.949 203.427 166.435 207.927 166.298 207.927C166.222 207.927 163.66 208.189 160.764 208.257C158.322 208.319 155.644 208.257 154.016 207.815C150.477 206.845 155.119 203.655 157.464 202.4C159.809 201.145 171.383 201.945 172.678 201.945C173.973 201.945 176.079 200.065 175.346 195.79C174.612 191.515 175.529 180.915 175.529 180.915L178.517 178.807L178.585 179.976L179.949 203.427Z" fill="#CFE0E6"/>
<path opacity="0.1" d="M179.949 203.427C179.949 203.427 166.435 207.927 166.298 207.927C166.222 207.927 163.66 208.189 160.764 208.256C162.527 207.82 164.891 207.164 165.425 206.688C166.298 205.89 172.642 203.668 172.642 203.668C172.642 203.668 178.846 204.065 177.651 199.508C176.455 194.95 177.229 180.42 177.229 180.42L178.585 179.994L179.949 203.427Z" fill="black"/>
<path d="M177.606 180.402C177.606 180.402 176.824 194.934 178.028 199.489C179.232 204.044 173.017 203.649 173.017 203.649C173.017 203.649 166.673 205.872 165.8 206.669C165.227 207.192 162.538 207.911 160.756 208.345C160.111 208.496 159.512 208.862 159.022 209.403C158.532 209.944 158.171 210.641 157.976 211.417C157.721 212.463 157.824 213.467 159.045 213.569C161.757 213.797 161.757 214.254 161.757 214.254C161.757 214.254 161.205 216.704 164.056 215.562C166.908 214.419 168.285 213.909 168.285 213.909C168.285 213.909 166.309 216.759 167.504 216.987C168.7 217.214 173.112 213.065 173.112 213.065C173.112 213.065 175.961 208.562 181.569 208.277C187.177 207.992 181.063 199.842 181.063 199.842C181.063 199.842 180.373 188.445 180.559 187.077C180.744 185.71 180.329 179.555 180.329 179.555L177.606 180.402Z" fill="#CFE0E6"/>
<path d="M177.1 153.217C177.1 153.217 170.113 153.217 167.722 150.602C165.33 147.988 160.929 142.047 160.929 142.047C160.929 142.047 148.241 123.354 144.563 128.484C144.563 128.484 144.656 130.992 147.965 132.017C151.274 133.042 151.459 136.122 151.459 136.122C151.459 136.122 140.058 134.292 140.518 138.059C140.518 138.059 141.254 140.224 145.58 138.857C149.905 137.489 151.004 139.084 151.004 139.084C151.004 139.084 150.911 141.137 148.705 141.022C146.499 140.907 144.66 142.617 144.477 144.099C144.293 145.582 149.348 144.327 149.348 144.327C149.348 144.327 152.934 143.757 155.139 146.492C157.345 149.227 160.473 147.862 160.473 147.862C160.473 147.862 167.92 157.322 176.744 156.409L177.1 153.217Z" fill="#CFE0E6"/>
<g opacity="0.1">
<path opacity="0.1" d="M150.888 139.029C150.943 138.862 150.977 138.686 150.991 138.506C150.991 138.506 149.888 136.911 145.567 138.279C141.695 139.503 140.704 137.895 140.539 137.547C140.496 137.728 140.486 137.919 140.51 138.106C140.51 138.106 141.246 140.274 145.571 138.907C149.169 137.772 150.534 138.692 150.888 139.029Z" fill="black"/>
<path opacity="0.1" d="M147.956 132.074C150.312 132.804 151.084 134.574 151.331 135.534L151.449 135.552C151.449 135.552 151.265 132.474 147.954 131.447C145.582 130.712 144.863 129.214 144.645 128.427C144.616 128.463 144.582 128.5 144.552 128.542C144.555 128.542 144.647 131.049 147.956 132.074Z" fill="black"/>
<path opacity="0.1" d="M176.731 155.839C167.907 156.752 160.46 147.297 160.46 147.297C160.46 147.297 157.335 148.664 155.127 145.93C152.919 143.195 149.329 143.757 149.329 143.757C149.329 143.757 145.097 144.803 144.519 143.848C144.492 143.949 144.471 144.052 144.458 144.157C144.274 145.639 149.329 144.384 149.329 144.384C149.329 144.384 152.915 143.814 155.121 146.549C157.327 149.284 160.454 147.917 160.454 147.917C160.454 147.917 167.901 157.379 176.725 156.467L177.094 153.274H177.022L176.731 155.839Z" fill="black"/>
</g>
<path d="M185.053 162.603C185.343 165.91 185.172 169.254 184.549 172.49C184.511 172.688 184.473 172.895 184.435 173.107C184.084 175.04 183.844 177.001 183.716 178.977C183.573 181.461 181.377 181.921 179.287 181.785C178.021 181.681 176.765 181.427 175.537 181.027C172.226 167.122 174.709 167.804 175.997 158.229C176.948 151.169 175.392 144.959 174.521 142.204C174.209 141.226 173.983 140.677 173.983 140.677C173.983 140.677 179.315 134.522 178.395 137.144C178.184 137.725 178.222 138.679 178.418 139.874C179.104 144.057 181.826 151.235 183.543 155.494C184.395 157.628 184.836 160.227 185.053 162.603Z" fill="#CFE0E6"/>
<path opacity="0.1" d="M175.902 180.972C172.593 167.067 175.076 167.749 176.362 158.177C177.313 151.117 175.757 144.907 174.886 142.149C174.574 141.171 174.348 140.625 174.348 140.625C174.348 140.625 177.379 137.116 178.477 136.525C178.186 135.766 173.979 140.625 173.979 140.625C173.979 140.625 174.205 141.171 174.517 142.149C175.396 144.907 176.95 151.107 175.993 158.177C174.704 167.749 172.222 167.067 175.533 180.972H175.902Z" fill="black"/>
<path opacity="0.1" d="M178.41 139.877C177.144 140.87 176.229 141.616 176.09 141.819C175.879 142.141 175.217 142.222 174.515 142.206C174.202 141.229 173.977 140.679 173.977 140.679C173.977 140.679 179.308 134.524 178.389 137.147C178.182 137.727 178.222 138.682 178.41 139.877Z" fill="black"/>
<path d="M172.317 141.477C172.317 141.477 175.535 142.162 176.086 141.364C176.636 140.567 188.59 131.69 189.6 131.562C190.61 131.434 192.082 127.344 192.082 127.344C192.082 127.344 202.416 105.441 189.762 94.5743C187.096 92.2948 184.005 90.8975 180.781 90.5149C177.557 90.1324 174.307 90.7773 171.341 92.3884C165.805 95.4005 160.003 102.256 160.507 117.803C160.587 119.958 161.004 122.073 161.736 124.029C162.23 125.368 162.713 126.879 162.667 127.561C162.574 128.939 172.317 141.477 172.317 141.477Z" fill="#CFE0E6"/>
<path opacity="0.1" d="M179.03 154.017L180.318 170.43C180.318 170.43 177.467 180.46 179.399 185.475C181.331 190.49 181.788 193.91 182.984 193.225C184.18 192.54 181.881 185.472 181.881 185.472C181.881 185.472 186.753 193.11 188.316 192.309C189.878 191.509 188.948 188.434 186.207 185.584C183.465 182.734 186.666 183.419 186.666 183.419C186.666 183.419 193.01 186.497 192.361 183.534C191.711 180.572 185.557 179.197 185.557 179.197C185.557 179.197 183.718 172.017 182.984 170.422C182.25 168.827 181.788 156.287 181.236 155.034C180.683 153.782 179.03 154.017 179.03 154.017Z" fill="black"/>
<path opacity="0.1" d="M184.254 173.107C183.903 175.04 183.662 177.002 183.535 178.977C183.391 181.461 181.194 181.921 179.106 181.785C178.895 176.684 180.679 170.43 180.679 170.43L179.393 154.017C179.393 154.017 181.046 153.787 181.599 155.042C182.151 156.297 182.609 168.832 183.345 170.43C183.695 171.296 183.999 172.191 184.254 173.107Z" fill="black"/>
<path d="M179.213 154.017L180.502 170.43C180.502 170.43 177.651 180.46 179.582 185.475C181.514 190.49 181.972 193.91 183.168 193.225C184.363 192.54 182.065 185.472 182.065 185.472C182.065 185.472 186.936 193.11 188.499 192.309C190.062 191.509 189.132 188.434 186.39 185.584C183.648 182.734 186.85 183.419 186.85 183.419C186.85 183.419 193.192 186.497 192.544 183.534C191.897 180.572 185.741 179.197 185.741 179.197C185.741 179.197 183.904 172.017 183.168 170.422C182.432 168.827 181.972 156.287 181.421 155.034C180.871 153.782 179.213 154.017 179.213 154.017Z" fill="#CFE0E6"/>
<path opacity="0.1" d="M153.06 138.724C152.86 139.309 152.514 139.799 152.073 140.123L153.06 138.724Z" fill="black"/>
<path opacity="0.1" d="M183.36 179.502C183.795 180.706 184.444 181.772 185.258 182.622L183.36 179.502Z" fill="black"/>
<path opacity="0.1" d="M181.2 182.455C181.23 182.937 181.318 183.411 181.461 183.861C181.534 184.086 181.646 184.288 181.79 184.452C181.933 184.617 182.104 184.74 182.29 184.813" fill="black"/>
<path opacity="0.2" d="M178.659 110.074C178.659 110.074 179.888 107.507 180.536 107.507L178.659 110.074Z" fill="black"/>
<path opacity="0.2" d="M178.984 111.518C178.984 111.518 182.799 106.145 183.705 106.145L178.984 111.518Z" fill="black"/>
<path opacity="0.2" d="M171.802 105.182C171.802 105.182 172.838 105.263 173.032 106.385L171.802 105.182Z" fill="black"/>
<path opacity="0.2" d="M169.925 104.701C169.925 104.701 172.256 107.188 172.319 108.228L169.925 104.701Z" fill="black"/>
<path opacity="0.2" d="M175.877 117.453C175.877 117.453 176.459 118.499 177.106 118.815L175.877 117.453Z" fill="black"/>
<path opacity="0.2" d="M176.324 114.966C176.324 114.966 177.423 117.934 178.07 117.934L176.324 114.966Z" fill="black"/>
<path opacity="0.2" d="M179.177 125.713C179.177 125.713 181.634 130.124 184.61 129.635L179.177 125.713Z" fill="black"/>
<path opacity="0.2" d="M173.871 125.072C173.871 125.072 171.931 127.559 170.185 127.559L173.871 125.072Z" fill="black"/>
<path opacity="0.2" d="M189.543 102.11C189.543 102.11 193.599 104.155 193.468 105.723L189.543 102.11Z" fill="black"/>
<path opacity="0.2" d="M191.331 101.245C191.331 101.245 193.991 103.734 194.383 104.924L191.331 101.245Z" fill="black"/>
<path opacity="0.2" d="M162.635 104.154C162.635 104.154 166.517 103.399 166.996 103.937L162.635 104.154Z" fill="black"/>
<path opacity="0.2" d="M163.202 101.786C163.202 101.786 166.473 101.462 167.127 102.047L163.202 101.786Z" fill="black"/>
<path opacity="0.1" d="M173.055 141.707C173.055 141.707 163.31 129.156 163.403 127.799C163.447 127.117 162.966 125.606 162.47 124.267C161.739 122.31 161.322 120.196 161.243 118.041C160.739 102.494 166.539 95.6385 172.077 92.6264C175.103 90.9834 178.421 90.3454 181.706 90.7752C178.188 90.1434 174.597 90.7448 171.341 92.5113C165.805 95.5261 160.003 102.379 160.507 117.929C160.586 120.083 161.004 122.197 161.736 124.152C162.23 125.493 162.713 127.002 162.667 127.687C162.574 129.054 172.319 141.592 172.319 141.592C172.319 141.592 172.777 141.689 173.374 141.767C173.178 141.733 173.055 141.707 173.055 141.707Z" fill="black"/>
<path opacity="0.9" d="M150.173 126.118V117.639H151.105V115.103H144.424V117.639H145.354V126.118C143.869 126.817 142.628 128.139 141.848 129.855C141.068 131.571 140.798 133.571 141.084 135.508C141.371 137.446 142.196 139.197 143.416 140.458C144.637 141.719 146.175 142.409 147.764 142.409C149.352 142.409 150.89 141.719 152.111 140.458C153.331 139.197 154.157 137.446 154.443 135.508C154.73 133.571 154.459 131.571 153.679 129.855C152.899 128.139 151.658 126.817 150.173 126.118Z" fill="#B1D3DE"/>
<path opacity="0.1" d="M150.175 117.612H145.356V117.727H150.175V117.612Z" fill="black"/>
<path d="M143.966 133.774C143.966 133.774 148.056 133.685 150.101 132.417C152.147 131.149 153.313 132.281 153.204 133.05C153.094 133.818 152.51 135.314 150.173 135.494C147.836 135.675 143.966 133.774 143.966 133.774Z" fill="#660606"/>
<path opacity="0.1" d="M143.966 133.774C143.966 133.774 148.056 133.685 150.101 132.417C152.147 131.149 153.313 132.281 153.204 133.05C153.094 133.818 152.51 135.314 150.173 135.494C147.836 135.675 143.966 133.774 143.966 133.774Z" fill="black"/>
<path d="M142.216 132.961C142.216 132.961 141.777 140.473 147.509 140.609C153.242 140.745 153.204 133.05 153.204 133.05C153.204 133.05 151.095 135.902 146.084 133.549C146.084 133.549 143.492 132.689 142.216 132.961Z" fill="#660606"/>
<path opacity="0.1" d="M153.182 133.076C153.068 134.807 152.326 140.225 147.509 140.11C142.787 140 142.254 134.88 142.211 133.081C142.184 134.046 142.211 140.483 147.509 140.609C153.241 140.745 153.203 133.05 153.203 133.05L153.182 133.076Z" fill="black"/>
<path opacity="0.3" d="M147.543 130.641C147.954 130.641 148.288 130.228 148.288 129.718C148.288 129.209 147.954 128.795 147.543 128.795C147.132 128.795 146.799 129.209 146.799 129.718C146.799 130.228 147.132 130.641 147.543 130.641Z" fill="#660606"/>
<path opacity="0.3" d="M147.969 126.602C148.223 126.602 148.429 126.347 148.429 126.032C148.429 125.717 148.223 125.462 147.969 125.462C147.715 125.462 147.509 125.717 147.509 126.032C147.509 126.347 147.715 126.602 147.969 126.602Z" fill="#660606"/>
<path opacity="0.3" d="M146.942 123.31C147.196 123.31 147.402 123.055 147.402 122.74C147.402 122.425 147.196 122.17 146.942 122.17C146.688 122.17 146.482 122.425 146.482 122.74C146.482 123.055 146.688 123.31 146.942 123.31Z" fill="#660606"/>
<path opacity="0.2" d="M143.002 130.43C142.964 130.817 142.971 131.303 143.251 131.476C143.002 131.348 143.973 129.609 143.846 129.256C143.544 128.506 143.034 130.069 143.002 130.43Z" fill="#FAFAFA"/>
<path opacity="0.3" d="M146.569 113.41C146.98 113.41 147.313 112.997 147.313 112.487C147.313 111.978 146.98 111.564 146.569 111.564C146.158 111.564 145.824 111.978 145.824 112.487C145.824 112.997 146.158 113.41 146.569 113.41Z" fill="#660606"/>
<path opacity="0.3" d="M148.8 111.593C149.105 111.593 149.353 111.287 149.353 110.908C149.353 110.53 149.105 110.223 148.8 110.223C148.495 110.223 148.247 110.53 148.247 110.908C148.247 111.287 148.495 111.593 148.8 111.593Z" fill="#660606"/>
<path opacity="0.3" d="M147.208 109.418C147.366 109.418 147.495 109.259 147.495 109.063C147.495 108.866 147.366 108.707 147.208 108.707C147.049 108.707 146.921 108.866 146.921 109.063C146.921 109.259 147.049 109.418 147.208 109.418Z" fill="#660606"/>
<path d="M74.9483 147.169C76.9793 148.398 79.4742 148.966 82.0176 149.149C82.0028 149.272 81.986 149.392 81.9691 149.509C81.831 150.497 81.5825 151.457 81.231 152.359H81.3828C77.9473 158.776 80.8028 172.331 80.8028 172.331C80.8028 172.331 81.5494 177.39 82.8274 182.967C83.536 186.055 83.148 187.791 82.665 188.72V188.738C82.6334 188.798 82.6039 188.861 82.5722 188.924V188.832C79.6429 193.112 81.6127 195.285 81.6127 195.285L83.245 197.819L83.1037 202.227L84.1687 202.489L83.9178 198.865L84.9153 200.413L85.1262 204.044C85.1262 204.044 90.0232 204.63 93.2731 205.352C96.523 206.073 96.9997 204.12 95.5614 203.537C94.123 202.954 92.6868 199.385 92.6868 199.385C92.4144 199.266 92.131 199.189 91.8433 199.157C91.8165 199.09 91.7891 199.019 91.761 198.946C90.6854 196.138 89.2239 190.963 89.2239 190.963V190.919C89.07 188.777 88.8253 186.643 88.5533 184.518C88.064 180.695 88.9603 171.308 88.9603 171.308C88.9603 171.308 89.2809 159.892 89.9726 157.296C90.2856 155.977 90.4939 154.623 90.5947 153.254C90.6137 153.055 90.6285 152.859 90.6433 152.671C96.1793 152.723 102.664 152.537 105.627 151.523C106.48 151.236 107.346 151.017 108.221 150.867C108.196 151.055 108.167 151.253 108.135 151.465C107.871 153.129 107.532 154.773 107.118 156.389C105.84 161.448 106.372 169.946 108.129 176.044C109.413 180.488 109.05 186.502 108.761 189.42C108.751 189.541 108.738 189.658 108.725 189.768L108.692 189.731C108.688 190.066 108.629 190.397 108.518 190.703C108.407 191.008 108.247 191.282 108.046 191.507C107.6 191.957 107.257 192.545 107.05 193.211C106.843 193.877 106.78 194.598 106.868 195.303C106.967 195.988 107.177 196.641 107.486 197.221C107.795 197.802 108.196 198.299 108.664 198.682V204.389H109.677V198.739C112.977 197.766 116.917 205.226 116.917 205.226C116.917 205.226 122.562 205.55 126.981 205.42C131.399 205.289 128.419 202.891 128.419 202.891C123.455 203.085 121.217 199.592 121.217 199.592L121.158 200.096L121.118 200.052C119.26 197.892 116.9 192.519 116.9 192.519C116.9 192.519 116.74 189.794 116.155 188.497C115.571 187.2 115.797 173.57 115.797 173.57L115.75 151.361V150.775C116.805 150.877 117.556 150.945 117.824 150.801C118.667 150.349 117.982 143.276 117.237 141.524C116.771 140.431 115 133.126 113.734 127.784C114.065 128.419 114.435 129.022 114.839 129.588C114.038 128.281 109.677 102.283 109.677 102.283L109.527 98.8836C110.194 97.7814 110.76 96.5904 111.214 95.3328C112.935 95.0922 117.225 94.1614 119.572 90.7414C120.116 89.957 120.232 89.3843 120.057 88.9974L133.255 85.6192L135.811 82.9574L127.909 84.7668C129.469 81.1454 127.556 79.8302 125.688 79.3648L126.135 77.6443C126.167 77.5231 126.175 77.3942 126.159 77.2683C126.143 77.1424 126.103 77.0231 126.042 76.9201L126.027 76.8991L125.998 76.8521C125.981 76.829 125.964 76.8072 125.945 76.7867L125.909 76.7475C125.888 76.7268 125.865 76.7076 125.842 76.69L125.806 76.6638C125.768 76.6398 125.73 76.6188 125.69 76.6011C125.519 76.534 125.333 76.5532 125.173 76.6544C125.012 76.7557 124.891 76.9309 124.834 77.1423L124.313 79.1452L124.089 79.1295L114.388 78.6065C114.388 78.6065 112.844 75.7539 112.258 76.5958C111.672 77.4378 110.82 76.4677 110.82 76.4677C110.82 76.4677 110.82 70.3702 109.542 70.6291C109.312 70.6764 109.077 70.6617 108.852 70.5858C108.628 70.51 108.419 70.3749 108.24 70.1898L108.211 69.5257C108.211 69.5257 108 66.4116 107.789 63.7524C107.595 61.3233 103.993 58.0863 103.36 57.5399L99.2584 50.4357C99.2506 50.4491 99.2435 50.463 99.2373 50.4775L99.1002 50.2396L99.1192 50.0906C99.1382 49.9677 99.1529 49.8474 99.1719 49.7245C99.956 50.0301 100.773 50.1853 101.595 50.1847C105.963 50.1847 109.502 45.8731 109.502 40.5521C109.503 39.321 109.31 38.1015 108.934 36.9621C108.92 36.9151 108.903 36.8706 108.888 36.8236C109.323 36.9279 109.773 36.8715 110.183 36.6614C110.276 36.61 110.362 36.5403 110.438 36.4549C111.537 35.1632 108.981 31.955 108.519 30.8045C108.137 29.858 107.947 28.799 107.492 27.9048C107.253 27.4447 106.957 27.0343 106.614 26.689C106.64 26.736 106.667 26.7831 106.692 26.8328C106.718 26.8825 106.709 26.872 106.72 26.8903C106.041 26.172 105.252 25.6312 104.4 25.3006C101.266 23.9932 94.644 22.074 92.6679 25.3162C92.2777 25.9542 91.955 26.689 91.4151 27.1465C91.006 27.4891 90.5083 27.6329 90.0591 27.8917C88.7937 28.6134 87.9923 30.1848 87.5599 31.8138C87.1276 33.4427 87.0032 35.1397 86.6889 36.7817C86.2882 38.9022 85.5796 40.913 84.8774 42.9132C84.0464 45.2664 83.1649 47.7164 81.5663 49.3846C79.3835 51.662 78.89 54.8755 76.8738 57.3725C74.4717 60.3376 74.554 65.2166 75.7877 69.1099C75.9501 69.6329 76.1336 70.1558 76.0703 70.6944C76.007 71.2331 75.6759 71.7403 75.3617 72.1613L74.0499 73.9654C75.7197 74.4278 77.4673 74.1503 78.9891 73.181C79.302 72.9882 79.6043 72.7698 79.8939 72.5274L79.8812 72.9797C79.7821 76.9017 79.8411 79.974 79.8411 79.974C81.4925 83.2816 77.1796 109.878 77.1796 109.878C76.1715 114.995 74.9483 147.169 74.9483 147.169ZM109.972 87.5305C109.803 87.5175 109.628 87.507 109.449 87.4991V87.4364L109.972 87.5305ZM114.483 88.1816L114.093 88.6653C113.268 88.8326 112.699 88.9843 112.699 88.9843L111.883 89.2118C111.779 88.5503 111.627 88.0665 111.473 87.8809C111.404 87.8127 111.323 87.7645 111.237 87.7397C112.298 87.9044 113.41 88.0508 114.483 88.1816Z" fill="#E8E8E8"/>
<path d="M84.2784 197.884L84.5905 202.472L83.5487 202.214L83.7048 197.238L84.2784 197.884Z" fill="#004257"/>
<path d="M108.053 176.098C109.318 180.543 108.953 186.521 108.671 189.433C108.565 190.508 108.46 191.164 108.46 191.164C108.46 191.164 110.337 196.467 110.493 196.655C110.649 196.843 116.02 200.922 116.02 200.922L119.774 203.636C119.774 203.636 123.581 201.568 121.755 200.857C121.382 200.672 121.046 200.387 120.772 200.023C118.952 197.871 116.645 192.516 116.645 192.516C116.645 192.516 116.489 189.802 115.917 188.51C115.345 187.219 115.55 173.641 115.55 173.641L115.506 151.507V148.631L108.361 148.696C108.315 149.676 108.212 150.65 108.053 151.612C107.796 153.27 107.464 154.908 107.057 156.519C105.811 161.553 106.332 170.022 108.053 176.098Z" fill="#FABBBB"/>
<path opacity="0.1" d="M108.47 191.159C108.47 191.159 110.347 196.462 110.503 196.65C110.659 196.838 116.031 200.917 116.031 200.917L119.785 203.631C119.785 203.631 123.592 201.563 121.765 200.852C121.392 200.666 121.057 200.382 120.782 200.018L120.62 201.432L119.367 201.369L108.671 189.423C108.565 190.503 108.47 191.159 108.47 191.159Z" fill="black"/>
<path d="M108.601 189.736L119.357 201.764L120.607 201.829L120.869 199.565C120.869 199.565 123.058 203.056 127.909 202.862C127.909 202.862 130.827 205.255 126.5 205.383C122.172 205.511 116.647 205.189 116.647 205.189C116.647 205.189 112.787 197.756 109.554 198.726V204.35H108.563V198.658C108.102 198.272 107.708 197.775 107.406 197.197C107.104 196.618 106.899 195.969 106.804 195.29C106.719 194.59 106.78 193.874 106.982 193.211C107.184 192.548 107.52 191.961 107.958 191.506C108.157 191.282 108.317 191.008 108.427 190.704C108.538 190.4 108.597 190.07 108.601 189.736Z" fill="#004257"/>
<path d="M83.2872 183.014C83.9789 186.089 83.6014 187.822 83.1269 188.753C83.1262 188.759 83.1262 188.765 83.1269 188.771C82.5175 189.919 82.0935 191.202 81.8784 192.55L81.8362 192.84L86.7353 201.696L89.3863 202.99C89.3863 202.99 93.6612 201.181 92.8787 200.663C92.6847 200.535 92.3789 199.866 92.0352 198.935C90.9807 196.134 89.5466 190.968 89.5466 190.968V190.926C89.3968 188.79 89.1564 186.664 88.8886 184.546C88.4098 180.736 89.2893 171.381 89.2893 171.381C89.2893 171.381 89.6014 160.004 90.2805 157.416C90.5854 156.101 90.7888 154.752 90.8879 153.389C91.0313 151.763 91.0629 150.435 91.0629 150.435C91.0629 150.435 88.2475 145.587 83.0847 150.824C82.673 151.244 82.3103 151.732 82.007 152.275C78.4429 158.564 81.3111 172.409 81.3111 172.409C81.3111 172.409 82.0345 177.455 83.2872 183.014Z" fill="#FABBBB"/>
<path opacity="0.1" d="M81.8278 192.84L86.7269 201.696L89.3863 202.991C89.3863 202.991 93.6612 201.181 92.8787 200.663C92.6847 200.535 92.3789 199.866 92.0352 198.935C90.2235 198.914 89.2935 201.053 89.2935 201.053L86.9989 200.601C86.9989 200.601 83.9747 193.23 83.2977 192.78C82.6207 192.33 83.1923 189.415 83.1923 189.415V188.672L83.1374 188.756C83.1367 188.762 83.1367 188.768 83.1374 188.774C82.528 189.922 82.104 191.205 81.8889 192.553L81.8278 192.84Z" fill="black"/>
<path d="M89.1268 201.244C89.1268 201.244 90.4302 198.271 92.923 199.369C92.923 199.369 94.3318 202.925 95.7384 203.506C97.1451 204.086 96.679 206.029 93.4966 205.318C90.3142 204.606 85.5289 204.036 85.5289 204.036L85.318 200.418L82.085 195.311C82.085 195.311 80.1553 193.143 83.0235 188.879V189.621C83.0235 189.621 82.4499 192.529 83.1268 192.984C83.8038 193.439 86.8302 200.805 86.8302 200.805L89.1268 201.244Z" fill="#004257"/>
<path opacity="0.1" d="M108.365 148.688C108.319 149.668 108.216 150.643 108.057 151.604C111.01 151.068 113.726 151.342 115.516 151.507V148.631L108.365 148.688Z" fill="black"/>
<path opacity="0.1" d="M81.7223 153.084C81.7223 153.084 85.9044 153.345 90.8815 153.387C91.0249 151.761 91.0566 150.432 91.0566 150.432C91.0566 150.432 88.2411 145.585 83.0784 150.822C82.6666 151.241 82.3039 151.73 82.0007 152.273C81.9199 152.549 81.8269 152.82 81.7223 153.084Z" fill="black"/>
<path d="M81.7223 152.503C81.7223 152.503 100.024 153.601 105.602 151.664C111.18 149.726 116.708 151.402 117.543 150.95C118.378 150.497 117.699 143.451 116.969 141.707C116.24 139.963 112.224 122.313 112.224 122.313L108.365 97.3561L104.299 95.9651L104.012 95.8657L96.9258 93.4419L91.7335 91.6665C91.7335 91.6665 81.4207 141.641 82.2959 145.325C82.6174 146.737 82.6687 148.223 82.4457 149.663C82.3104 150.646 82.067 151.602 81.7223 152.503Z" fill="#004257"/>
<path d="M121.818 80.2954C121.818 80.2954 125.469 85.1431 122.704 87.8597C119.939 90.5764 118.117 88.1212 118.117 88.1212L121.818 80.2954Z" fill="#CFE0E6"/>
<path opacity="0.1" d="M121.818 80.2954C121.818 80.2954 125.469 85.1431 122.704 87.8597C119.939 90.5764 118.117 88.1212 118.117 88.1212L121.818 80.2954Z" fill="black"/>
<path d="M92.2798 48.3618C92.2798 48.3618 92.7016 48.8639 93.3532 49.6117C94.2728 50.6758 95.633 52.2264 96.8394 53.5337C98.5118 55.3379 99.8889 56.6714 99.3975 55.5314C98.9061 54.3913 98.9968 52.4329 99.2436 50.5896C99.2605 50.4667 99.2752 50.3464 99.2942 50.2235C99.498 48.871 99.7677 47.535 100.102 46.223C100.102 46.223 97.4025 41.8957 95.9072 40.1883C95.3504 39.5503 94.9624 39.2783 94.9392 39.7255C94.9118 40.3294 94.5448 41.6551 94.0956 43.088L94.0534 43.2213C93.7476 44.1835 93.4081 45.1876 93.1065 46.0504C92.6446 47.3761 92.2798 48.3618 92.2798 48.3618Z" fill="#FABBBB"/>
<path opacity="0.1" d="M94.0513 43.2319C94.3052 44.9241 94.921 46.5006 95.8343 47.7967C96.7477 49.0929 97.9251 50.0611 99.2435 50.6002C99.4498 49.1223 99.7366 47.6635 100.102 46.2336C100.102 46.2336 95.0172 38.0888 94.9391 39.7361C94.9181 40.3558 94.5216 41.7416 94.0513 43.2319Z" fill="black"/>
<path opacity="0.1" d="M99.7498 52.7729L99.0918 51.625C99.0918 51.625 98.6552 54.9221 97.0524 53.4684C95.4496 52.0146 95.3652 64.4083 95.3652 64.4083L97.0861 96.3077L109.529 95.3873L109.177 79.9606L107.768 72.2053L104.288 60.9072L102.215 57.1734L99.7498 52.7729Z" fill="black"/>
<path d="M95.3694 64.6019L96.9258 93.4473L97.0903 96.5039L104.025 95.9809L104.299 95.96L109.527 95.5731L109.175 80.1463L107.766 72.3911L104.286 61.0929L102.213 57.3618L99.7497 52.9481L99.0917 51.8003C99.0917 51.8003 98.6551 55.0974 97.0523 53.6306L97.0186 53.6018C95.4474 52.3834 95.3694 64.6019 95.3694 64.6019Z" fill="#004257"/>
<path d="M107.585 69.6929C107.585 69.6929 108.217 71.3088 109.462 71.0499C110.706 70.791 110.712 76.8702 110.712 76.8702C110.712 76.8702 111.556 77.8377 112.121 76.9984C112.686 76.159 114.207 79.0012 114.207 79.0012L123.697 79.5241C123.697 79.5241 119.479 81.9166 120.308 89.1567C120.308 89.1567 105.967 88.0585 105.501 86.3773C105.035 84.696 107.585 69.6929 107.585 69.6929Z" fill="#FAFAFA"/>
<path opacity="0.03" d="M107.585 69.6929C107.585 69.6929 108.217 71.3088 109.462 71.0499C110.706 70.791 110.712 76.8702 110.712 76.8702C110.712 76.8702 111.556 77.8377 112.121 76.9984C112.686 76.159 114.207 79.0012 114.207 79.0012L123.697 79.5241C123.697 79.5241 119.479 81.9166 120.308 89.1567C120.308 89.1567 105.967 88.0585 105.501 86.3773C105.035 84.696 107.585 69.6929 107.585 69.6929Z" fill="black"/>
<path d="M135.168 83.3335L132.664 85.9848L112.068 91.3502L114.624 88.1184L135.168 83.3335Z" fill="#FAFAFA"/>
<path d="M99.7096 53.79C100.051 54.4254 101.03 57.7539 101.848 60.6484C102.529 63.0617 103.101 65.1692 103.101 65.1692C103.101 65.1692 104.429 75.8895 105.106 77.8374C105.783 79.7854 105.421 87.3419 105.421 87.3419L107.951 106.024C107.951 106.024 109.097 115.659 110.868 121.411C112.614 127.075 114.559 129.731 114.62 129.813C113.838 128.505 109.558 102.601 109.558 102.601L108.152 69.9541C108.152 69.9541 107.941 66.8504 107.73 64.2017C107.519 61.5531 103.301 57.9265 103.301 57.9265L99.2224 50.7334C98.8111 51.442 99.0853 52.6264 99.7096 53.79Z" fill="#FAFAFA"/>
<path d="M110.347 95.7455C110.347 95.7455 116.343 95.4213 119.264 91.0913C122.185 86.7614 112.536 89.3447 112.536 89.3447L110.035 90.0559L110.347 95.7455Z" fill="#FABBBB"/>
<path opacity="0.1" d="M82.296 145.326C82.6175 146.738 82.6688 148.223 82.4457 149.664C88.9983 150.241 96.0085 148.042 96.0085 148.042C97.3118 149.53 100.754 151.727 100.754 151.727L102.631 122.894C103.829 119.017 104.299 98.6533 104.299 98.6533C104.299 98.6533 104.191 97.5865 104.025 95.9915C104.025 95.9523 104.025 95.9104 104.012 95.8712C103.544 91.4132 102.618 83.0409 102.162 81.9113C101.53 80.3608 104.09 76.2243 104.09 76.2243L102.928 63.9352L102.787 62.4553C100.336 61.0956 98.4591 56.7631 98.4591 56.7631L97.0187 53.6254C95.4496 52.3782 95.3716 64.6072 95.3716 64.6072L96.928 93.4526L91.7357 91.6772C91.7357 91.6772 81.4208 141.642 82.296 145.326Z" fill="black"/>
<path d="M75.5704 147.331C82.7114 151.727 95.6963 147.656 95.6963 147.656C96.9996 149.141 100.441 151.34 100.441 151.34L102.318 122.507C103.516 118.63 103.987 98.2665 103.987 98.2665C103.987 98.2665 102.474 83.075 101.848 81.5324C101.667 81.08 101.755 80.4054 101.97 79.6812C103.036 76.2284 103.429 72.512 103.116 68.8354L102.616 63.5484L102.474 62.0659C100.024 60.7089 98.1469 56.3763 98.1469 56.3763L96.8393 53.5393L94.4351 48.3099L93.2963 45.8364L93.1043 46.0534L91.6281 47.7138C91.6281 47.7138 90.9954 48.3518 90.0632 49.3375C88.0175 51.4763 84.4829 55.2363 82.6608 57.5372C81.058 59.5662 80.5518 67.4496 80.4042 73.385C80.3072 77.2965 80.3662 80.361 80.3662 80.361C81.9838 83.6581 77.7595 110.169 77.7595 110.169C76.7683 115.267 75.5704 147.331 75.5704 147.331Z" fill="#FAFAFA"/>
<path opacity="0.03" d="M89.283 56.3055C89.283 56.3055 94.1842 67.8756 93.6106 72.2709C93.0369 76.6662 91.4193 81.6446 92.2018 82.8081C92.4692 83.25 92.8155 83.6091 93.2136 83.8573C93.6117 84.1054 94.0507 84.2358 94.4963 84.2384C95.2787 84.3037 97.3645 86.1131 97.3645 86.3066C97.3645 86.5001 99.2942 86.5001 101.015 87.4048C102.736 88.3095 105.29 88.8272 105.29 88.8272C105.29 88.8272 110.244 88.6337 110.712 89.2168C111.18 89.7999 111.651 93.2879 110.659 96.0673C109.668 98.8467 108.574 100.918 107.741 101.297C106.908 101.676 101.639 99.4873 97.3645 98.9696C93.0896 98.4519 88.4478 94.2501 88.4478 94.2501C88.4478 94.2501 83.3378 91.9884 82.452 88.1735C81.5663 84.3587 83.5466 63.4149 83.5466 63.4149C83.5466 63.4149 85.0587 53.662 89.283 56.3055Z" fill="black"/>
<path opacity="0.03" d="M89.9072 55.3435C89.9072 55.3435 94.8085 66.9136 94.2369 71.3089C93.6654 75.7042 92.0457 80.6826 92.8281 81.8462C93.0968 82.2877 93.4445 82.6459 93.8437 82.8927C94.2429 83.1395 94.6829 83.2682 95.129 83.2686C95.9114 83.3339 97.9972 85.1433 97.9972 85.3368C97.9972 85.5303 99.9248 85.5303 101.646 86.4376C103.367 87.3449 105.923 87.86 105.923 87.86C105.923 87.86 110.875 87.6639 111.345 88.247C111.815 88.83 112.283 92.318 111.292 95.1001C110.301 97.8821 109.206 99.9478 108.373 100.329C107.54 100.711 102.272 98.5201 97.9972 98.0024C93.7223 97.4847 89.0805 93.2829 89.0805 93.2829C89.0805 93.2829 83.9705 91.0212 83.0847 87.2063C82.199 83.3914 84.1793 62.4477 84.1793 62.4477C84.1793 62.4477 85.6851 52.6922 89.9072 55.3435Z" fill="black"/>
<path d="M89.4349 55.7304C89.4349 55.7304 94.3361 67.3031 93.7624 71.6984C93.1888 76.0937 91.5733 81.0721 92.3537 82.2357C92.6217 82.6761 92.9683 83.0337 93.3664 83.2805C93.7645 83.5272 94.2032 83.6564 94.6482 83.6581C95.4306 83.7208 97.5164 85.5302 97.5164 85.7263C97.5164 85.9224 99.4461 85.9198 101.167 86.8245C102.888 87.7292 105.442 88.2469 105.442 88.2469C105.442 88.2469 110.396 88.0534 110.864 88.6338C111.332 89.2143 111.803 92.7076 110.813 95.487C109.824 98.2664 108.728 100.335 107.893 100.716C107.057 101.098 101.791 98.907 97.5164 98.3893C93.2415 97.8716 88.5997 93.6828 88.5997 93.6828C88.5997 93.6828 83.4918 91.4185 82.6039 87.6063C81.7161 83.794 83.7027 62.8424 83.7027 62.8424C83.7027 62.8424 85.2169 53.0791 89.4349 55.7304Z" fill="#FAFAFA"/>
<path opacity="0.1" d="M89.5424 86.759C89.5424 86.759 93.4545 85.7889 92.0985 87.4048C90.7424 89.0207 90.7424 90.4431 89.0742 90.3803C87.4061 90.3176 89.5424 86.759 89.5424 86.759Z" fill="black"/>
<path opacity="0.1" d="M82.9223 121.603C82.9223 121.603 84.6938 123.09 81.3047 126.516C77.9156 129.941 82.9223 121.603 82.9223 121.603Z" fill="black"/>
<path opacity="0.1" d="M86.3114 133.821C86.3114 134.014 86.9441 140.93 84.5905 142.677C82.2368 144.423 86.3114 133.821 86.3114 133.821Z" fill="black"/>
<path d="M123.539 79.5137C125.437 79.5921 129.516 80.2981 127.396 85.2085C125.523 89.5437 122.377 86.6466 120.614 84.4476C121.045 82.4001 122.091 80.6347 123.539 79.5137Z" fill="#FABBBB"/>
<path d="M120.582 84.4084L120.504 84.3091L120.582 84.4084Z" fill="#FABBBB"/>
<path opacity="0.1" d="M90.0675 49.5333C92.0731 51.2329 93.7561 52.671 94.0745 52.9664C94.9751 53.7901 96.696 58.6403 97.7905 61.1112C98.6721 63.1036 101.532 63.6161 102.612 63.7416L102.47 62.2591C100.024 60.902 98.1469 56.5669 98.1469 56.5669L93.2963 46.0322L91.6281 47.907C91.6281 47.907 91.0018 48.5502 90.0675 49.5333Z" fill="black"/>
<path d="M90.0675 49.34C92.0731 51.0395 93.7561 52.4776 94.0745 52.7731C94.9751 53.5967 96.696 58.4444 97.7905 60.9179C98.6721 62.9103 101.532 63.4228 102.612 63.5483L102.47 62.0657C100.02 60.7087 98.1427 56.3761 98.1427 56.3761L93.2921 45.8389L91.6239 47.7162C91.6239 47.7162 91.0018 48.3542 90.0675 49.34Z" fill="#77B4C7"/>
<path d="M93.9227 41.0879C93.9223 42.987 94.3761 44.8435 95.2268 46.4228C96.0774 48.002 97.2868 49.2331 98.7018 49.9601C100.117 50.6872 101.674 50.8778 103.176 50.5076C104.679 50.1374 106.059 49.2232 107.142 47.8805C108.225 46.5379 108.963 44.8271 109.262 42.9646C109.561 41.1021 109.408 39.1715 108.822 37.4169C108.236 35.6624 107.243 34.1627 105.969 33.1076C104.696 32.0525 103.199 31.4893 101.667 31.4893C100.649 31.4838 99.6399 31.7283 98.6985 32.2087C97.757 32.6891 96.9016 33.3958 96.1817 34.2882C95.4617 35.1806 94.8914 36.2409 94.5037 37.408C94.116 38.575 93.9185 39.8258 93.9227 41.0879Z" fill="#FABBBB"/>
<path opacity="0.1" d="M80.4042 73.3873C81.463 72.5783 82.3247 71.4278 82.897 70.0588C83.3335 68.9893 83.6225 67.7578 84.3732 66.9969C85.0418 66.3197 85.9465 66.155 86.7754 65.8491C89.517 64.8424 91.8242 61.7335 91.9128 58.1828C91.9529 56.5146 91.5332 54.8464 91.723 53.1939C91.8318 52.2566 92.1332 51.3697 92.5982 50.6184C92.8274 50.2588 93.0792 49.9222 93.3511 49.6118C93.7181 49.183 94.0998 48.7698 94.433 48.3044C94.6449 48.0238 94.8302 47.7141 94.9855 47.3814C95.1091 47.1083 95.2095 46.82 95.285 46.5212C95.7954 44.5419 95.3314 42.1912 95.9051 40.1858L95.9367 40.0759C96.1476 39.3647 96.5947 38.6535 97.2021 38.596C97.8094 38.5385 98.343 39.1713 98.9293 39.4563C100.153 40.0446 101.475 39.0431 102.496 38.0182C103.516 36.9932 104.67 35.8244 105.967 36.0545C106.825 36.2062 107.504 36.9305 108.287 37.307C108.466 37.3905 108.651 37.456 108.839 37.5031C108.12 35.2669 106.749 33.4475 104.998 32.4056C103.247 31.3637 101.245 31.1752 99.3874 31.8776C97.53 32.58 95.9531 34.1219 94.9695 36.1978C93.9858 38.2737 93.6672 40.732 94.0766 43.0855L94.0344 43.2188C93.7286 44.181 93.3891 45.1851 93.0875 46.0479L91.6112 47.7083C91.6112 47.7083 90.9785 48.3463 90.0464 49.332C88.0007 51.4708 84.466 55.2308 82.6439 57.5317C81.058 59.5686 80.5518 67.4519 80.4042 73.3873Z" fill="black"/>
<path d="M108.394 31.4081C108.021 30.4642 107.835 29.4105 107.388 28.5162C106.732 27.2089 105.587 26.3905 104.415 25.9015C101.346 24.5942 94.8611 22.6854 92.925 25.9172C92.5433 26.5552 92.2291 27.2847 91.6997 27.7318C91.299 28.0744 90.8119 28.2182 90.3711 28.4744C89.1352 29.1934 88.3465 30.7597 87.9247 32.3703C87.5029 33.981 87.3806 35.6831 87.0811 37.3383C86.6867 39.4509 85.995 41.4564 85.3054 43.4488C84.4934 45.8021 83.6308 48.2363 82.0639 49.8993C79.9254 52.1689 79.4446 55.3745 77.4685 57.8585C75.117 60.8157 75.1929 65.6869 76.414 69.554C76.5721 70.0639 76.7535 70.5999 76.6902 71.1229C76.627 71.6458 76.3043 72.1687 75.9964 72.5845L74.712 74.3834C77.7511 75.2933 81.1929 73.3244 82.6059 69.8678C83.0445 68.801 83.3314 67.5695 84.0822 66.8086C84.7507 66.1288 85.6533 65.9667 86.4843 65.6607C89.2259 64.6541 91.5331 61.5426 91.6196 57.9944C91.6618 56.3262 91.2421 54.6581 91.4319 53.0056C91.5409 52.0688 91.8415 51.1821 92.305 50.4301C93.0242 49.2691 94.1103 48.4743 94.6924 47.2009C95.6836 45.0359 94.9307 42.233 95.6456 39.8954C95.8565 39.1842 96.3036 38.4704 96.911 38.4155C97.5184 38.3606 98.0519 38.9934 98.6361 39.2757C99.8593 39.8641 101.184 38.8626 102.202 37.8377C103.221 36.8127 104.377 35.6439 105.676 35.874C106.534 36.0257 107.213 36.7499 107.996 37.1265C108.582 37.4062 109.769 37.6494 110.282 37.0428C111.349 35.7511 108.837 32.5533 108.394 31.4081Z" fill="#660606"/>
<path opacity="0.1" d="M81.8593 68.7645C82.2959 67.6951 82.5848 66.4662 83.3356 65.7053C84.0042 65.0255 84.9068 64.8634 85.7377 64.5575C88.4794 63.5508 90.7866 60.4393 90.8731 56.8912C90.9152 55.223 90.4934 53.5522 90.6854 51.9023C90.793 50.965 91.0937 50.078 91.5585 49.3268C92.2776 48.1633 93.3637 47.371 93.9458 46.0951C94.937 43.9327 94.1841 41.1271 94.897 38.7922C95.1079 38.0784 95.5571 37.3672 96.1623 37.3123C96.7676 37.2574 97.3033 37.8875 97.8875 38.1699C99.1107 38.7608 100.433 37.7594 101.454 36.7344C102.474 35.7095 103.628 34.5407 104.927 34.7682C105.786 34.9198 106.465 35.6441 107.247 36.0232C107.833 36.3004 109.019 36.5462 109.533 35.9395C110.609 34.6531 108.105 31.4553 107.654 30.3101C107.281 29.3636 107.095 28.3098 106.648 27.4182C106.623 27.3685 106.595 27.3215 106.57 27.2744C106.907 27.6191 107.197 28.0277 107.431 28.485C107.876 29.3766 108.063 30.4304 108.434 31.3769C108.888 32.5221 111.387 35.7199 110.313 37.0063C109.801 37.6182 108.626 37.3672 108.029 37.0874C107.239 36.7109 106.553 35.9866 105.71 35.835C104.41 35.6075 103.255 36.7763 102.236 37.8012C101.218 38.8262 99.8931 39.8276 98.6699 39.2367C98.0836 38.9543 97.5711 38.3215 96.9448 38.3764C96.3184 38.4314 95.8903 39.1452 95.6794 39.859C94.9666 42.1835 95.7173 44.9995 94.7282 47.1619C94.1441 48.4378 93.0601 49.2301 92.3409 50.3936C91.8764 51.1452 91.575 52.032 91.4657 52.9691C91.2759 54.619 91.6977 56.2898 91.6555 57.958C91.5669 61.5061 89.266 64.6176 86.5202 65.6243C85.6892 65.9276 84.7866 66.0923 84.1181 66.7721C83.3694 67.533 83.0804 68.7619 82.6418 69.8314C81.2267 73.288 77.7912 75.2542 74.7479 74.3443L75.3532 73.4972C77.9915 73.5625 80.6572 71.7009 81.8593 68.7645Z" fill="black"/>
<path opacity="0.1" d="M99.8677 53.9864C100.207 54.6192 101.188 57.9503 102.006 60.8422C102.77 60.4761 103.466 58.1229 103.466 58.1229L99.3848 50.9272C98.9672 51.6384 99.2414 52.8229 99.8677 53.9864Z" fill="black"/>
<path d="M99.7097 53.79C100.051 54.4254 101.03 57.7539 101.848 60.6484C102.614 60.2823 103.308 57.9264 103.308 57.9264L99.2289 50.7334C98.8113 51.442 99.0854 52.6264 99.7097 53.79Z" fill="#77B4C7"/>
<path d="M123.429 86.8711L125.692 78.0386C125.719 77.9346 125.729 77.825 125.722 77.7161C125.715 77.6072 125.69 77.5012 125.65 77.4041C125.609 77.3069 125.554 77.2206 125.487 77.15C125.419 77.0794 125.342 77.026 125.258 76.9927C125.174 76.9587 125.085 76.9456 124.997 76.9543C124.909 76.963 124.823 76.9932 124.745 77.0434C124.666 77.0935 124.597 77.1624 124.54 77.2462C124.483 77.33 124.44 77.4269 124.414 77.5314L122.16 86.3743L122.385 88.2229L123.429 86.8711Z" fill="#E75C5C"/>
<path opacity="0.1" d="M125.479 77.2519C125.395 77.2177 125.307 77.2045 125.219 77.2131C125.131 77.2216 125.045 77.2516 124.967 77.3015C124.889 77.3514 124.819 77.42 124.762 77.5035C124.705 77.587 124.662 77.6837 124.635 77.7879L122.373 86.6204L122.543 88.0088L122.379 88.2206L122.16 86.3746L124.42 77.5421C124.447 77.4376 124.49 77.3407 124.546 77.2569C124.603 77.1732 124.673 77.1042 124.751 77.0541C124.83 77.004 124.916 76.9737 125.004 76.965C125.092 76.9563 125.18 76.9694 125.264 77.0035C125.404 77.0587 125.526 77.1699 125.61 77.3199C125.569 77.2908 125.525 77.268 125.479 77.2519Z" fill="#FAFAFA"/>
<path d="M123.431 86.8715L122.16 86.3721L122.345 87.8886L122.385 88.2207L122.756 87.7422L123.431 86.8715Z" fill="#E75C5C"/>
<path d="M122.756 87.7396C122.733 87.706 122.705 87.6777 122.674 87.6559C122.656 87.6418 122.635 87.6343 122.613 87.6343C122.591 87.6343 122.57 87.6418 122.552 87.6559C122.535 87.6826 122.52 87.7116 122.508 87.7422C122.491 87.7788 122.467 87.8101 122.439 87.8336C122.411 87.8572 122.379 87.8724 122.345 87.8781L122.385 88.2102L122.756 87.7396Z" fill="#007194"/>
<path d="M125.709 81.1685C125.709 81.1685 121.173 81.1345 122.242 83.5217C123.311 85.9089 124.983 86.2044 124.983 86.2044L125.709 81.1685Z" fill="#FABBBB"/>
<path d="M30.715 172.505C30.715 172.505 32.2187 174.945 30.0211 178.626C27.8236 182.308 26.0141 185.425 26.7396 187.715C26.7396 187.715 30.0591 180.875 32.7585 180.781C35.458 180.687 33.6865 176.618 30.715 172.505Z" fill="#660606"/>
<path opacity="0.1" d="M30.715 172.505C30.8464 172.74 30.9501 172.998 31.0229 173.269C33.657 177.107 35.0615 180.689 32.5287 180.781C30.1687 180.865 27.3385 186.094 26.6594 187.414C26.6826 187.516 26.71 187.618 26.7396 187.715C26.7396 187.715 30.0591 180.875 32.7585 180.781C35.458 180.687 33.6865 176.618 30.715 172.505Z" fill="black"/>
<path d="M33.5114 175.614C33.5114 176.472 33.4334 177.167 33.3385 177.167C33.2436 177.167 33.1655 176.472 33.1655 175.614C33.1655 174.757 33.2625 175.159 33.3574 175.159C33.4523 175.159 33.5114 174.751 33.5114 175.614Z" fill="#990909"/>
<path d="M34.4709 176.64C33.8635 177.05 33.3342 177.298 33.2878 177.194C33.2414 177.089 33.6969 176.671 34.3064 176.26C34.9159 175.85 34.6734 176.148 34.7282 176.26C34.7831 176.373 35.0804 176.229 34.4709 176.64Z" fill="#990909"/>
<path d="M22.7663 172.505C22.7663 172.505 21.2626 174.945 23.4601 178.626C25.6577 182.308 27.4671 185.425 26.7396 187.715C26.7396 187.715 23.4222 180.875 20.7206 180.781C18.019 180.687 19.7947 176.618 22.7663 172.505Z" fill="#660606"/>
<path opacity="0.1" d="M22.7662 172.505C22.6348 172.74 22.5311 172.998 22.4583 173.269C19.8242 177.107 18.4197 180.689 20.9525 180.781C23.3125 180.865 26.1427 186.094 26.8218 187.414C26.7988 187.516 26.7713 187.617 26.7395 187.715C26.7395 187.715 23.4242 180.875 20.7205 180.781C18.0168 180.687 19.7947 176.618 22.7662 172.505Z" fill="black"/>
<path d="M19.9697 175.614C19.9697 176.472 20.0478 177.167 20.1427 177.167C20.2376 177.167 20.3156 176.472 20.3156 175.614C20.3156 174.757 20.2186 175.159 20.1237 175.159C20.0288 175.159 19.9697 174.751 19.9697 175.614Z" fill="#990909"/>
<path d="M19.0102 176.64C19.6176 177.05 20.1469 177.298 20.1933 177.194C20.2397 177.089 19.7842 176.671 19.1747 176.26C18.5652 175.85 18.8077 176.148 18.7529 176.26C18.6981 176.373 18.4007 176.229 19.0102 176.64Z" fill="#990909"/>
<path opacity="0.1" d="M26.7417 206.382C35.4307 206.382 42.4745 205.041 42.4745 203.388C42.4745 201.734 35.4307 200.394 26.7417 200.394C18.0526 200.394 11.0088 201.734 11.0088 203.388C11.0088 205.041 18.0526 206.382 26.7417 206.382Z" fill="#660606"/>
<path d="M34.838 184.426L34.7621 185.187L34.6566 186.264L34.6123 186.711L34.5069 187.789L34.4626 188.238L34.3572 189.313L33.1529 201.55C33.0454 202.643 31.605 203.493 29.8693 203.493H23.612C21.8742 203.493 20.4485 202.643 20.3304 201.55L19.1241 189.313L19.0187 188.238L18.9744 187.789L18.8668 186.711L18.8246 186.264L18.7192 185.187L18.6433 184.426C18.5821 183.806 19.3603 183.286 20.3452 183.286H33.1382C34.1188 183.289 34.8992 183.809 34.838 184.426Z" fill="#005F7D"/>
<path d="M34.7641 185.192L34.6587 186.267H18.8246L18.7191 185.192H34.7641Z" fill="#CFE0E6"/>
<path d="M34.6144 186.716L34.509 187.794H18.9765L18.8689 186.716H34.6144Z" fill="#CFE0E6"/>
<path d="M34.4626 188.241L34.3572 189.315H19.1241L19.0187 188.241H34.4626Z" fill="#CFE0E6"/>
</g>
<defs>
<filter id="filter0_d" x="0.00878906" y="0" width="231.004" height="232" filterUnits="userSpaceOnUse" color-interpolation-filters="sRGB">
<feFlood flood-opacity="0" result="BackgroundImageFix"/>
<feColorMatrix in="SourceAlpha" type="matrix" values="0 0 0 0 0 0 0 0 0 0 0 0 0 0 0 0 0 0 127 0"/>
<feOffset dy="4"/>
<feGaussianBlur stdDeviation="2"/>
<feColorMatrix type="matrix" values="0 0 0 0 0 0 0 0 0 0.596078 0 0 0 0 0.780392 0 0 0 0.25 0"/>
<feBlend mode="normal" in2="BackgroundImageFix" result="effect1_dropShadow"/>
<feBlend mode="normal" in="SourceGraphic" in2="effect1_dropShadow" result="shape"/>
</filter>
<clipPath id="clip0">
<rect width="210" height="210" fill="white" transform="translate(11.0088 7)"/>
</clipPath>
</defs>
</svg>
