<svg width="232" height="232" viewBox="0 0 232 232" fill="none" xmlns="http://www.w3.org/2000/svg">
<g filter="url(#filter0_d)">
<rect x="4" width="223.004" height="224" rx="10" fill="#DCE3E6"/>
</g>
<g clip-path="url(#clip0)">
<path d="M46.3416 169.1C46.3416 169.1 47.0801 153.547 62.2207 155.355L46.3416 169.1Z" fill="#CCCCCC"/>
<path d="M46.1637 221.803C46.1448 221.64 44.3577 205.433 51.5937 196.856C54.2642 193.691 57.8426 191.918 62.2292 191.587L62.2775 192.198C58.0672 192.516 54.6351 194.214 52.0771 197.245C45.0105 205.62 46.7669 221.573 46.7853 221.733L46.1637 221.803Z" fill="#CCCCCC"/>
<path d="M46.1817 153.198H45.5519V221.34H46.1817V153.198Z" fill="#CCCCCC"/>
<path d="M46.3416 153.547C49.1969 153.547 51.5116 151.281 51.5116 148.485C51.5116 145.689 49.1969 143.423 46.3416 143.423C43.4863 143.423 41.1716 145.689 41.1716 148.485C41.1716 151.281 43.4863 153.547 46.3416 153.547Z" fill="#28A1C7"/>
<path d="M62.2535 196.923C65.0907 196.923 67.3908 194.671 67.3908 191.893C67.3908 189.115 65.0907 186.863 62.2535 186.863C59.4162 186.863 57.1162 189.115 57.1162 191.893C57.1162 194.671 59.4162 196.923 62.2535 196.923Z" fill="#CCCCCC"/>
<path d="M221 57.6193V57.9523C220.992 58.7885 220.968 59.6209 220.927 60.4495C220.19 74.6304 213.942 87.9985 203.463 97.8141C192.984 107.63 179.068 113.15 164.566 113.242C150.064 113.335 136.075 107.994 125.466 98.3137C114.857 88.6331 108.431 75.3462 107.504 61.1759C107.427 59.9992 107.389 58.8137 107.389 57.6193C107.368 46.0995 111.02 34.8606 117.834 25.4696C118.379 24.7129 118.945 23.9701 119.534 23.2411C119.94 22.7341 120.357 22.2384 120.778 21.7465C130.368 10.6235 144.028 3.62356 158.828 2.24846C173.627 0.873358 188.388 5.23267 199.943 14.3911C200.627 14.9322 201.3 15.4922 201.957 16.0635C202.482 16.5213 202.999 16.9892 203.506 17.4672C213.501 26.8285 219.654 39.4466 220.803 52.9428C220.934 54.4865 221 56.0453 221 57.6193Z" fill="#0098C7"/>
<path d="M119.534 23.2416C119.562 23.253 119.588 23.2683 119.611 23.287C119.917 23.5329 119.534 24.0059 119.58 24.3956C119.635 24.895 120.315 25.0048 120.829 25.0539C121.343 25.1069 121.992 25.5118 121.748 25.9582C120.458 26.3934 119.152 25.9658 117.834 25.4701C111.02 34.8612 107.368 46.1001 107.389 57.6198C107.389 58.8155 107.427 60.001 107.504 61.1765C107.612 61.2537 107.731 61.316 107.856 61.3619C108.243 61.5056 108.691 61.4791 109.046 61.6835C109.328 61.8462 109.518 62.1337 109.8 62.2851C110.607 62.7164 111.728 61.8878 112.482 62.4024C112.676 62.5761 112.861 62.7605 113.034 62.9548C113.73 63.545 114.874 63.1477 115.677 63.5904C116.195 63.8742 116.462 64.4417 116.74 64.9563C117.432 66.2428 118.553 67.5065 120.033 67.6087C120.499 67.5877 120.967 67.6029 121.431 67.6541C121.887 67.7562 122.336 68.1459 122.262 68.5962C122.135 69.3718 122.525 70.2194 122.421 70.995C122.231 72.4139 120.179 73.0344 120.006 74.4533C120.005 74.7656 119.987 75.0775 119.951 75.3879C119.859 75.7587 119.573 76.0614 119.472 76.4322C119.279 77.1321 119.793 77.8321 120.353 78.3013C120.918 78.7742 121.59 79.1829 121.899 79.8412C122.224 80.5412 122.065 81.3547 122.17 82.1152C122.401 83.7762 123.866 85.0059 125.373 85.8005C125.856 85.9981 126.285 86.304 126.625 86.6934C127.012 87.242 126.973 87.9647 127.104 88.6193C127.421 90.2198 128.797 91.5403 128.836 93.171C128.863 94.3326 128.206 95.3844 127.812 96.4779C127.406 97.6242 127.285 98.8486 127.46 100.05C129.663 101.879 132.005 103.543 134.466 105.025C134.6 104.832 134.698 104.616 134.756 104.39C134.802 104.139 134.77 103.88 134.663 103.647C134.556 103.415 134.38 103.22 134.157 103.088C134.572 102.934 134.95 102.697 135.266 102.392C135.421 102.235 135.524 102.036 135.559 101.821C135.595 101.606 135.563 101.385 135.467 101.189C136.147 101.272 136.955 101.313 137.403 100.803C137.762 100.394 137.739 99.781 137.596 99.2627C137.453 98.7405 137.213 98.2373 137.21 97.6962C138.785 97.7714 140.365 97.7195 141.932 97.5411C141.705 96.7927 141.189 96.1603 140.494 95.7779C141.205 95.6606 141.851 94.8282 142.075 94.1585C142.269 93.4753 142.279 92.7546 142.106 92.0662C142.052 91.8892 142.044 91.702 142.083 91.5213C142.197 91.2814 142.398 91.0913 142.647 90.9878C143.821 90.3257 144.996 89.6648 146.171 89.0052C146.381 88.9017 146.571 88.7649 146.735 88.6003C147.102 88.1728 147.048 87.5334 146.859 87.0074C146.669 86.4815 146.368 85.9858 146.295 85.4334C146.078 83.78 147.887 82.5919 148.497 81.033C148.705 80.4107 148.817 79.7617 148.83 79.1072C148.88 78.4034 148.884 77.5899 148.335 77.1397C147.806 76.7046 146.982 76.8029 146.43 76.3981C145.924 76.0273 145.75 75.3122 145.197 75.0133C144.695 74.7408 144.069 74.9149 143.508 74.7863C142.527 74.563 141.909 73.4544 140.904 73.3522C140.34 73.2917 139.698 73.5641 139.234 73.2425C138.825 72.955 138.809 72.3836 138.732 71.8993C138.595 71.145 138.225 70.4498 137.672 69.9073C137.12 69.3649 136.411 69.0011 135.641 68.8648C135.057 68.774 134.423 68.8081 133.925 68.494C133.423 68.1762 133.195 67.5822 132.797 67.1395C132.163 66.432 131.158 66.1784 130.219 65.9628C128.944 65.6714 127.67 65.3788 126.397 65.085C125.721 64.9261 124.848 64.8428 124.48 65.4255C124.372 65.6471 124.296 65.8828 124.256 66.1255C124.118 66.5621 123.843 66.945 123.47 67.2195C123.096 67.494 122.644 67.646 122.177 67.6541C121.858 67.1198 121.34 66.7268 120.732 66.5568C120.335 66.4915 119.942 66.4005 119.557 66.2844C119.356 66.1879 119.177 66.0523 119.032 65.8859C118.886 65.7194 118.776 65.5256 118.71 65.3162C118.643 65.1069 118.621 64.8865 118.645 64.6685C118.668 64.4505 118.737 64.2394 118.846 64.0483C119.065 63.6643 119.15 63.2204 119.086 62.785C119.023 62.3496 118.815 61.9466 118.495 61.6381C117.845 61.0667 116.906 60.9267 116.033 60.9835C115.805 60.4954 116.188 59.9468 116.597 59.5911C117.011 59.2392 117.509 58.8911 117.598 58.3614C117.741 57.529 116.655 56.8971 115.832 57.1431C115.009 57.3928 114.483 58.176 114.136 58.9479C113.967 59.4033 113.737 59.8347 113.452 60.2305C113.305 60.4264 113.107 60.5788 112.878 60.671C112.649 60.7631 112.398 60.7914 112.153 60.7527C111.473 60.5824 111.214 59.7916 111.063 59.1257C110.822 58.2357 110.7 57.3186 110.7 56.3977C110.706 55.4677 111.083 54.5769 111.751 53.9156C112.876 52.9016 114.607 53 116.126 53.1627C115.963 52.9503 115.885 52.687 115.906 52.4224C115.928 52.1577 116.047 51.9097 116.242 51.7249C116.445 51.5482 116.689 51.4228 116.953 51.3595C117.217 51.2962 117.493 51.2969 117.757 51.3617C118.214 51.4545 118.627 51.6958 118.927 52.0465C119.36 52.5611 119.484 53.2611 119.808 53.8437C120.137 54.4302 120.871 54.9297 121.47 54.6156C121.992 54.3432 122.073 53.6394 121.945 53.0757C121.814 52.5157 121.54 51.9671 121.586 51.3919C121.675 50.2985 122.838 49.6363 123.862 49.1861C124.886 48.7358 126.057 48.1267 126.219 47.037C126.227 46.825 126.269 46.6156 126.343 46.4165C126.456 46.2387 126.615 46.0927 126.803 45.9927C129.79 44.0592 132.831 42.0993 136.247 41.0437C136.425 40.9869 136.444 41.0475 136.626 41.0058C136.881 40.8621 136.711 40.4648 136.468 40.3059C136.224 40.147 135.9 40.0221 135.838 39.7421C135.795 39.5378 135.919 39.3335 135.95 39.1254C135.958 38.9997 135.934 38.8739 135.881 38.7592C135.828 38.6445 135.747 38.5443 135.645 38.4674C135.543 38.3904 135.424 38.3391 135.297 38.318C135.17 38.2968 135.04 38.3064 134.918 38.3459C134.644 37.9903 135.185 37.5779 135.625 37.4568C136.944 37.103 138.298 36.8874 139.663 36.8136C139.821 36.7881 139.983 36.8147 140.123 36.8892C140.224 36.9841 140.283 37.113 140.29 37.2495C140.296 37.386 140.249 37.5197 140.158 37.6233C139.972 37.8254 139.766 38.0092 139.544 38.1719C139.322 38.3827 139.164 38.6491 139.086 38.942C139.008 39.2349 139.014 39.5431 139.103 39.8329C139.818 40.1886 140.591 40.5556 141.383 40.4307C142.171 40.3059 142.871 39.4356 142.5 38.7432C142.156 38.0962 141.116 37.9486 140.939 37.2411C140.73 36.4125 141.928 35.6747 141.657 34.865C141.541 34.5093 141.178 34.2974 140.9 34.0439C140.573 33.7283 140.35 33.3233 140.261 32.8819C140.172 32.4405 140.221 31.9831 140.401 31.5694C139.949 31.6468 139.484 31.6171 139.046 31.4828C138.608 31.3486 138.209 31.1136 137.882 30.7975C137.279 30.2035 136.8 29.2614 135.942 29.2916C135.158 29.3143 134.481 30.2111 133.747 29.9386C133.565 29.8705 133.376 29.7343 133.202 29.8138C133.145 29.8499 133.097 29.8983 133.061 29.9553C133.026 30.0123 133.004 30.0765 132.997 30.143C132.812 31.017 133.133 32.0121 132.646 32.7688C132.116 33.5899 130.891 33.7034 130.25 34.445C129.902 34.846 129.767 35.3871 129.446 35.8109C129.125 36.2346 128.449 36.5071 128.063 36.1363C128.252 35.7564 128.304 35.3249 128.21 34.9124C128.116 34.4999 127.881 34.131 127.545 33.8661C127.189 33.6373 126.805 33.4542 126.401 33.3212C125.95 33.135 125.521 32.9016 125.122 32.6251C124.923 32.5063 124.761 32.3361 124.654 32.1332C124.57 31.878 124.581 31.6018 124.685 31.3538C124.881 30.8073 125.225 30.3234 125.68 29.9541C126.136 29.5847 126.686 29.344 127.27 29.2576C127.781 29.1895 128.376 29.2122 128.716 28.8301C128.894 28.6295 128.986 28.323 129.249 28.2436C129.415 28.2098 129.587 28.2297 129.74 28.3004C130.377 28.5198 131.011 28.7393 131.649 28.9587C131.861 29.0542 132.096 29.0921 132.329 29.0684C132.444 29.0539 132.55 28.9969 132.623 28.909C132.697 28.8212 132.734 28.7091 132.727 28.5955C132.665 28.2852 132.178 28.1377 132.225 27.8236C132.247 27.721 132.303 27.6282 132.383 27.5588C133.072 26.841 133.915 26.2812 134.851 25.9195C135.787 25.5578 136.793 25.403 137.797 25.4664C138.037 25.8561 137.658 26.3139 137.337 26.6431C137.02 26.9761 136.765 27.5663 137.152 27.8198C137.307 27.8999 137.482 27.939 137.658 27.9333C138.128 27.9951 138.584 28.1305 139.01 28.3344C139.671 28.6144 140.32 28.9246 140.954 29.2576C140.861 28.8519 140.877 28.4295 141 28.0317C141.07 27.8364 141.212 27.6736 141.398 27.575C141.583 27.4764 141.8 27.449 142.005 27.4982C142.384 27.642 142.577 28.1339 142.983 28.1793C143.52 28.2398 143.733 27.4604 143.508 26.9761C143.284 26.4918 142.836 26.0907 142.801 25.5572C142.774 25.2015 142.913 24.7589 142.624 24.5432C142.52 24.4763 142.402 24.4348 142.28 24.4221C139.853 23.987 137.425 23.5506 134.995 23.113C134.563 23.0335 133.94 23.094 133.921 23.5216C133.909 23.7638 134.13 24.0021 134.033 24.2216C133.929 24.4562 133.589 24.4372 133.341 24.5205C133.156 24.603 133.002 24.7426 132.905 24.918C132.807 25.0935 132.77 25.2953 132.8 25.4929C132.866 25.8863 133.022 26.2601 133.256 26.5864C132.781 26.3934 132.066 26.3593 131.591 26.1626C131.522 25.6237 131.381 25.0959 131.173 24.5924C131.162 24.5122 131.132 24.4356 131.087 24.3679C131.041 24.3002 130.981 24.2431 130.911 24.2005C130.84 24.158 130.761 24.131 130.679 24.1216C130.597 24.1121 130.514 24.1204 130.435 24.1459C129.809 24.2405 129.183 24.3313 128.557 24.4259C128.4 24.4332 128.25 24.4903 128.128 24.5886C127.885 24.8421 128.125 25.2469 128.117 25.595C128.094 25.7897 128.01 25.9726 127.877 26.1184C127.743 26.2641 127.566 26.3656 127.371 26.4085C126.978 26.4867 126.572 26.4816 126.181 26.3934C125.304 26.261 124.43 26.1285 123.553 25.9961C124.327 25.7545 125.016 25.3033 125.539 24.6945C125.887 24.2935 126.073 23.5443 125.57 23.3551C125.422 23.3152 125.267 23.3037 125.114 23.3211C123.924 23.3286 122.985 22.3562 121.872 21.9438C121.522 21.816 121.152 21.7494 120.778 21.7471L119.534 23.2416Z" fill="#333333"/>
<path d="M220.927 60.4498C220.79 60.6289 220.611 60.7726 220.405 60.8683C220.199 60.9639 219.972 61.0086 219.744 60.9984C218.535 60.8963 218.024 59.1898 216.826 58.9969C216.721 58.9703 216.608 58.981 216.51 59.0272C216.332 59.1217 216.301 59.3563 216.289 59.5531C216.239 60.5293 216.197 61.5433 216.587 62.4438C217.155 63.7605 218.627 64.8653 218.318 66.2615C216.656 65.5085 215.791 63.681 215.401 61.9292C215.006 60.1774 214.945 58.3385 214.241 56.6813C213.704 57.351 212.583 56.7986 212.097 56.0948C211.633 55.4289 211.347 54.657 210.899 53.9798C210.45 53.3063 209.763 52.7009 208.943 52.6631C208.082 52.6252 207.332 53.2041 206.675 53.7528C206.103 54.1661 205.624 54.6887 205.264 55.2889C204.805 56.197 204.924 57.264 204.901 58.2742C204.878 59.3639 204.642 60.5179 203.881 61.3201C203.12 62.1184 201.717 62.3984 200.878 61.6757C200.473 61.2619 200.184 60.7521 200.04 60.1963C199.128 57.595 198.37 54.9446 197.768 52.2582C197.628 52.8712 197.076 53.662 196.55 53.3025C196.433 53.2047 196.338 53.0834 196.272 52.9469C195.291 51.3237 193.478 50.3475 191.643 49.761C189.811 49.1783 187.883 48.9059 186.07 48.2627C185.054 47.9013 184.083 47.4278 183.176 46.8514C182.946 47.1837 182.811 47.5707 182.787 47.9715C182.762 48.3724 182.848 48.7724 183.037 49.1292C183.24 49.4783 183.556 49.7517 183.935 49.907C184.314 50.0623 184.734 50.0908 185.131 49.988C185.533 49.8594 185.873 49.587 186.271 49.4508C186.669 49.3183 187.206 49.3827 187.38 49.761C187.55 50.1205 187.295 50.5556 187.423 50.934C187.612 51.5053 188.497 51.5507 188.806 52.0728C188.897 52.2796 188.918 52.5094 188.866 52.7286C188.814 52.9479 188.691 53.145 188.516 53.2912C188.161 53.5751 187.768 53.8117 187.349 53.9949C186.051 54.7025 185.127 55.9095 183.991 56.8478C182.855 57.7899 181.251 58.4748 179.899 57.8732C180.22 56.2727 178.276 55.0998 177.917 53.5068C177.797 52.9809 177.859 52.4247 177.692 51.9139C177.449 51.1723 176.777 50.6653 176.228 50.1053C175.561 49.4179 175.042 48.6068 174.7 47.7198C174.358 46.8329 174.201 45.888 174.238 44.9406C174.269 44.2823 174.392 43.6126 174.238 42.9694C174.087 42.3299 173.542 41.7094 172.87 41.7359C171.336 41.804 169.4 41.9175 168.596 40.6349C168.306 40.177 168.182 39.5073 168.6 39.1555C168.893 38.9095 169.326 38.9322 169.709 38.9701C170.864 39.0798 172.016 39.1933 173.171 39.303C173.979 39.3787 174.852 39.443 175.548 39.0306C176.243 38.6182 176.545 37.5171 175.899 37.029C175.432 36.6734 174.589 36.6923 174.45 36.1285C174.338 35.6556 174.871 35.1221 174.582 34.7248C174.377 34.4448 173.913 34.5205 173.631 34.7324C173.385 34.9826 173.117 35.2117 172.831 35.4172C172.278 35.6972 171.622 35.4286 171.026 35.2469C170.431 35.0653 169.635 35.0502 169.349 35.5913C169.025 36.1929 169.631 36.9874 169.315 37.5928C168.889 38.3912 167.46 37.9371 166.865 38.6257C166.184 39.4127 167.328 40.5932 167.1 41.5997C166.807 41.7422 166.48 41.8078 166.153 41.7899C165.826 41.772 165.509 41.6712 165.234 41.4975C164.963 41.3175 164.748 41.0689 164.61 40.7784C164.473 40.4879 164.419 40.1663 164.453 39.8479C164.507 39.3938 164.751 38.9284 164.588 38.5009C164.413 38.1707 164.125 37.912 163.773 37.7706C162.652 37.1615 161.532 36.5548 160.411 35.9507C160.098 36.5183 160.492 37.2182 160.987 37.6458C161.478 38.0695 162.096 38.3912 162.421 38.9511C162.626 39.3392 162.673 39.7895 162.55 40.21C162.428 40.6305 162.147 40.9896 161.764 41.2138C161.715 41.2464 161.66 41.2684 161.602 41.2782C161.544 41.288 161.484 41.2854 161.427 41.2705C161.374 41.2397 161.327 41.1988 161.29 41.15C161.253 41.1013 161.226 41.0458 161.211 40.9867C160.62 39.4998 159.727 38.0355 158.305 37.2598C156.879 36.4804 154.835 36.6431 153.9 37.9485C153.679 38.2587 153.529 38.6144 153.335 38.9436C152.311 40.6878 150.109 41.5127 148.053 41.4597C147.852 41.4723 147.651 41.4262 147.477 41.3273C147.145 41.104 147.16 40.6273 147.21 40.2338C147.284 39.6776 147.353 39.1252 147.427 38.569C147.429 38.2294 147.563 37.9033 147.802 37.6571C148.184 37.362 148.733 37.5474 149.22 37.5398C149.587 37.5238 149.941 37.3971 150.232 37.177C150.523 36.9569 150.738 36.6542 150.847 36.3102C150.945 35.963 150.944 35.5962 150.845 35.2495C150.745 34.9027 150.551 34.5892 150.283 34.3427C150.062 34.1383 149.765 33.8811 149.881 33.6049C149.928 33.5288 149.991 33.4636 150.067 33.414C150.142 33.3643 150.228 33.3313 150.317 33.3173C151.187 33.0714 152.11 33.007 152.964 32.7119C153.822 32.4206 154.653 31.8228 154.858 30.9563C154.92 30.6914 154.947 30.3698 155.19 30.2374C155.313 30.1891 155.444 30.1635 155.577 30.1617C156.041 30.0965 156.464 29.8636 156.763 29.5086C157.061 29.1537 157.213 28.7024 157.188 28.2434C157.598 27.9634 158.174 28.1715 158.572 28.4704C158.966 28.7693 159.317 29.1628 159.8 29.2915C160.701 29.5336 161.57 28.7504 162.506 28.7466C162.9 28.7466 163.305 28.8829 163.673 28.7504C164.047 28.618 164.272 28.2548 164.557 27.9861C164.847 27.7137 165.35 27.551 165.616 27.8424C165.539 27.2937 165.466 26.7489 165.388 26.204C165.844 26.3163 166.318 26.3318 166.78 26.2496C167.242 26.1674 167.681 25.9893 168.066 25.7273C167.093 25.4057 166.123 25.0841 165.149 24.7625C165.046 24.7378 164.952 24.6883 164.874 24.6187C164.662 24.3954 164.874 24.0474 165.044 23.7938C165.458 23.1847 165.527 22.182 164.847 21.8793C164.384 21.6712 163.854 21.9209 163.41 22.1631C162.699 22.549 161.988 22.9387 161.277 23.3247C161.211 23.722 161.706 23.949 162.011 24.2138C162.197 24.3754 162.329 24.5883 162.389 24.8246C162.449 25.0609 162.434 25.3094 162.347 25.5375C162.26 25.7656 162.105 25.9626 161.901 26.1025C161.698 26.2424 161.456 26.3187 161.207 26.3213C161.347 26.5003 161.444 26.7078 161.492 26.9284C161.539 27.1491 161.536 27.3773 161.481 27.5964C161.006 27.6305 160.527 27.6645 160.048 27.6986C159.968 27.7141 159.886 27.7141 159.807 27.6985C159.727 27.6829 159.651 27.6521 159.584 27.6078C159.43 27.4753 159.453 27.2408 159.414 27.044C159.35 26.8088 159.216 26.5977 159.029 26.4379C158.842 26.2781 158.61 26.1768 158.363 26.1473C157.871 26.0931 157.372 26.1381 156.898 26.2797C156.692 26.3508 156.467 26.3454 156.265 26.2646C156.15 26.1902 156.063 26.0813 156.017 25.9543C155.933 25.6949 155.919 25.4185 155.976 25.1521C156.033 24.8856 156.159 24.6381 156.342 24.4333C156.713 24.0298 157.122 23.6612 157.563 23.3322C158.563 22.4751 159.298 21.3611 159.685 20.1161C160.473 19.7908 161.288 19.3518 162.08 19.0265C162.717 18.7375 163.385 18.518 164.071 18.3719C164.716 18.2754 165.37 18.2449 166.022 18.2811C166.911 18.2962 167.804 18.3113 168.692 18.3303C169.486 18.2976 170.278 18.4092 171.03 18.6594C171.761 18.9546 172.406 19.594 172.456 20.3659C172.471 20.4538 172.463 20.5441 172.433 20.6282C172.403 20.7123 172.351 20.7874 172.282 20.8464C172.18 20.9019 172.063 20.9282 171.946 20.9221C171.208 20.9448 170.895 21.1264 170.157 21.1529C170.625 21.641 171.15 22.1555 171.83 22.2426C173.028 22.3939 173.89 21.1794 174.442 20.1237C174.462 20.3924 174.588 20.6429 174.794 20.8218C175 21.0006 175.269 21.0936 175.544 21.081C175.84 21.0311 176.122 20.923 176.375 20.7632C178.752 19.4913 181.414 18.8178 184.123 18.8032C184.096 18.6024 184.147 18.3991 184.264 18.2328C184.382 18.0664 184.559 17.9488 184.76 17.9027C185.313 17.7968 185.807 18.2622 186.074 18.7465C186.337 19.2308 186.503 19.7907 186.928 20.154C187.349 20.5172 188.165 20.4983 188.331 19.9762C188.493 19.4729 187.956 19.0416 187.512 18.7427C187.063 18.4476 186.596 17.8989 186.897 17.46C189.169 16.9643 191.461 16.4725 193.791 16.3741C194.187 16.3858 194.582 16.3189 194.95 16.1773C195.133 16.1016 195.285 15.969 195.383 15.8C195.481 15.631 195.519 15.4351 195.492 15.2428C194.983 15.359 194.451 15.3246 193.962 15.1441C193.474 14.9635 193.051 14.645 192.748 14.2288C195.14 14.0358 197.644 13.8655 199.943 14.3915L201.957 16.0638C201.574 16.4536 201.064 16.8206 201.342 17.2103C201.434 17.2998 201.545 17.3677 201.668 17.409C201.79 17.4503 201.921 17.4639 202.049 17.4487C202.536 17.4562 203.023 17.4676 203.506 17.4676C213.501 26.8288 219.654 39.447 220.803 52.9431C219.991 52.9128 219.246 53.9193 219.35 54.7971C219.474 55.8149 220.223 56.6322 220.76 57.51C220.849 57.6526 220.929 57.8005 221 57.9526L220.927 60.4498Z" fill="#333333"/>
<path d="M145.821 112.365C151.213 112.365 155.583 108.086 155.583 102.807C155.583 97.5284 151.213 93.249 145.821 93.249C140.43 93.249 136.059 97.5284 136.059 102.807C136.059 108.086 140.43 112.365 145.821 112.365Z" fill="#004257"/>
<path d="M141.161 107.636C141.161 107.636 137.982 114.53 137.073 114.752C136.165 114.975 144.568 118.977 144.568 118.977C144.568 118.977 146.158 110.527 146.839 110.082C147.521 109.638 141.161 107.636 141.161 107.636Z" fill="#FABBBB"/>
<path d="M122.31 164.12L116.405 180.353L122.764 182.8L133.666 161.674L122.31 164.12Z" fill="#FABBBB"/>
<path d="M142.978 164.565C142.978 164.565 154.789 180.799 155.47 181.021C156.151 181.243 160.921 177.241 160.921 177.241C160.921 177.241 155.016 163.231 153.199 162.564C151.382 161.896 142.978 164.565 142.978 164.565Z" fill="#FABBBB"/>
<path d="M115.497 177.463L106.185 201.257C106.185 201.257 106.866 202.592 106.185 202.814C105.504 203.036 103.914 206.594 103.914 206.817C103.914 207.039 102.324 207.262 102.324 207.929C102.324 208.596 100.961 213.933 100.961 213.933C100.961 213.933 103.459 219.27 105.049 217.713C106.639 216.157 107.321 213.043 107.321 213.043L109.592 207.262C109.592 207.262 109.365 204.148 110.954 203.703C112.544 203.259 113.453 197.699 113.453 197.699C113.453 197.699 115.951 195.253 116.405 194.586C116.86 193.919 124.809 182.133 124.127 181.91C123.446 181.688 115.497 177.463 115.497 177.463Z" fill="#004257"/>
<path d="M154.107 180.576L160.921 176.128C160.921 176.128 172.731 197.254 172.731 197.699C172.731 198.144 172.277 199.478 172.731 199.923C173.185 200.368 177.046 207.484 179.545 208.151C182.043 208.818 182.497 211.486 180.453 211.931C178.409 212.376 175.684 213.488 175.002 211.931C174.604 211.015 174.149 210.124 173.639 209.263C173.639 209.263 171.368 209.93 171.141 209.485C170.879 208.83 170.652 208.162 170.46 207.484C170.46 207.484 168.643 204.37 168.643 203.258C168.643 202.147 167.507 201.924 167.507 201.924C167.507 201.924 165.009 196.142 163.419 195.253C161.829 194.363 160.467 189.916 160.467 189.916L154.107 180.576Z" fill="#004257"/>
<path d="M145.931 112.751C149.568 112.751 152.517 109.864 152.517 106.302C152.517 102.74 149.568 99.853 145.931 99.853C142.293 99.853 139.344 102.74 139.344 106.302C139.344 109.864 142.293 112.751 145.931 112.751Z" fill="#FABBBB"/>
<path d="M126.399 145.44C126.399 145.44 116.65 170.796 118.013 170.796C119.376 170.796 157.076 171.599 158.211 169.82C159.347 168.041 148.429 150.333 147.975 150.11C147.521 149.888 126.399 145.44 126.399 145.44Z" fill="#004257"/>
<path d="M116.632 92.5142L109.819 82.2848C109.819 82.2848 111.504 71.554 109.232 73.5554C106.961 75.5568 106.243 83.6391 106.243 83.6391L114.134 95.4051L116.632 92.5142Z" fill="#FABBBB"/>
<path d="M178.409 111.194L184.541 110.749C184.541 110.749 191.809 103.188 192.263 105.635C192.718 108.081 186.358 113.418 186.358 113.418L177.955 114.307L178.409 111.194Z" fill="#FABBBB"/>
<path d="M133.666 113.418V111.194C133.666 111.194 127.761 107.414 127.988 106.747C128.215 106.08 127.534 105.635 127.534 105.635C127.534 105.635 126.853 104.745 126.853 104.523C126.853 104.301 125.944 104.078 125.944 104.078L120.266 97.6292C120.266 97.6292 117.087 91.4026 116.405 91.625C115.724 91.8473 112.09 93.1816 112.544 94.0711C112.998 94.9606 125.717 114.085 125.717 114.085C125.717 114.085 126.398 118.31 127.534 118.31C128.67 118.31 133.666 113.418 133.666 113.418Z" fill="#333333"/>
<path d="M148.883 116.087C148.883 116.087 153.88 115.864 154.107 116.087C154.334 116.309 157.514 116.087 157.514 116.087C157.514 116.087 166.144 114.085 166.826 113.418C167.507 112.751 178.863 109.86 179.317 111.194C179.772 112.528 180.907 115.197 179.772 115.642C178.636 116.087 147.975 123.647 147.975 123.647L148.883 116.087Z" fill="#333333"/>
<path d="M142.406 96.7023C144.637 96.7023 146.446 94.9315 146.446 92.7471C146.446 90.5628 144.637 88.792 142.406 88.792C140.175 88.792 138.367 90.5628 138.367 92.7471C138.367 94.9315 140.175 96.7023 142.406 96.7023Z" fill="#004257"/>
<path d="M137.02 90.605C137.02 89.6274 137.39 88.6844 138.059 87.958C138.727 87.2316 139.646 86.7732 140.639 86.6713C140.499 86.6571 140.359 86.6499 140.218 86.6499C139.147 86.6499 138.12 87.0666 137.362 87.8083C136.604 88.5501 136.179 89.5561 136.179 90.605C136.179 91.654 136.604 92.66 137.362 93.4017C138.12 94.1435 139.147 94.5602 140.218 94.5602C140.359 94.5601 140.499 94.553 140.639 94.5388C139.646 94.4369 138.727 93.9785 138.059 93.252C137.39 92.5256 137.02 91.5827 137.02 90.605Z" fill="#004257"/>
<path d="M146.957 104.736C150.675 104.736 153.689 102.965 153.689 100.781C153.689 98.5965 150.675 96.8257 146.957 96.8257C143.239 96.8257 140.224 98.5965 140.224 100.781C140.224 102.965 143.239 104.736 146.957 104.736Z" fill="#004257"/>
<path d="M139.231 111.083C139.231 111.083 137.187 112.639 136.732 112.862C136.278 113.084 133.553 110.86 133.099 110.86C132.644 110.86 126.739 117.532 126.739 117.532C126.739 117.532 127.837 118.769 126.739 125.093C126.328 127.464 125.511 137.602 125.511 138.937C125.511 140.271 121.061 143.55 125.149 146.441C129.237 149.332 148.77 152.445 148.997 150.666C149.224 148.887 146.726 144.217 147.861 141.993C148.997 139.769 148.997 131.541 148.997 131.541L150.36 122.869L151.495 115.975C151.495 115.975 146.158 114.53 145.704 114.53C145.249 114.53 143.205 117.643 139.231 111.083Z" fill="#333333"/>
<path d="M220.101 221.309H11V222H220.101V221.309Z" fill="#333333"/>
</g>
<defs>
<filter id="filter0_d" x="0" y="0" width="231.004" height="232" filterUnits="userSpaceOnUse" color-interpolation-filters="sRGB">
<feFlood flood-opacity="0" result="BackgroundImageFix"/>
<feColorMatrix in="SourceAlpha" type="matrix" values="0 0 0 0 0 0 0 0 0 0 0 0 0 0 0 0 0 0 127 0"/>
<feOffset dy="4"/>
<feGaussianBlur stdDeviation="2"/>
<feColorMatrix type="matrix" values="0 0 0 0 0.862745 0 0 0 0 0.890196 0 0 0 0 0.898039 0 0 0 0.5 0"/>
<feBlend mode="normal" in2="BackgroundImageFix" result="effect1_dropShadow"/>
<feBlend mode="normal" in="SourceGraphic" in2="effect1_dropShadow" result="shape"/>
</filter>
<clipPath id="clip0">
<rect width="210" height="220" fill="white" transform="translate(11 2)"/>
</clipPath>
</defs>
</svg>
