<svg width="232" height="232" viewBox="0 0 232 232" fill="none" xmlns="http://www.w3.org/2000/svg">
<g filter="url(#filter0_d)">
<rect x="4.00439" width="223.004" height="224" rx="10" fill="#666666"/>
</g>
<g clip-path="url(#clip0)">
<path d="M210.015 202.684C210.015 210.59 165.465 217 110.51 217C55.5539 217 11.0044 210.59 11.0044 202.684C11.0044 197.087 33.3353 192.238 65.88 189.886C79.3003 188.913 94.4637 188.368 110.51 188.368C117.106 188.368 123.551 188.461 129.785 188.636C175.516 189.929 210.015 195.726 210.015 202.684Z" fill="#004257"/>
<path opacity="0.1" d="M97.6703 205.609C118.766 205.609 135.868 203.61 135.868 201.145C135.868 198.679 118.766 196.681 97.6703 196.681C76.5746 196.681 59.4731 198.679 59.4731 201.145C59.4731 203.61 76.5746 205.609 97.6703 205.609Z" fill="black"/>
<path d="M97.5098 204.377C117.453 204.377 133.621 187.837 133.621 167.433C133.621 147.03 117.453 130.489 97.5098 130.489C77.5664 130.489 61.399 147.03 61.399 167.433C61.399 187.837 77.5664 204.377 97.5098 204.377Z" fill="#004257"/>
<path d="M108.905 189.292H86.4358V208.995H108.905V189.292Z" fill="#28A1C7"/>
<path d="M138.275 194.064L136.991 200.837L145.337 202.068L150.793 198.99L150.472 194.064H138.275Z" fill="#004257"/>
<path d="M96.2258 66.915C96.2258 66.915 95.5838 73.996 93.9789 74.3038C92.374 74.6117 97.5097 86.9264 97.5097 86.9264H105.213L111.312 85.387L108.423 78.614C108.423 78.614 104.571 73.6881 107.46 69.6858C110.349 65.6836 96.2258 66.915 96.2258 66.915Z" fill="#FABBBB"/>
<path opacity="0.1" d="M96.2258 66.915C96.2258 66.915 95.5838 73.996 93.9789 74.3038C92.374 74.6117 97.5097 86.9264 97.5097 86.9264H105.213L111.312 85.387L108.423 78.614C108.423 78.614 104.571 73.6881 107.46 69.6858C110.349 65.6836 96.2258 66.915 96.2258 66.915Z" fill="black"/>
<path d="M80.1766 121.1C80.1766 121.1 71.831 136.493 78.5716 139.572C85.3123 142.65 86.9172 142.342 86.9172 143.266C86.9172 144.19 85.6333 143.882 86.2753 145.421C86.9172 146.96 84.9913 153.118 86.9172 156.812C88.8431 160.507 88.2012 163.277 88.2012 163.277C88.2012 163.277 88.2012 163.585 88.8431 164.817C89.4851 166.048 89.8061 166.972 89.4851 167.588C89.1641 168.203 87.2382 172.206 89.1641 173.129C91.09 174.053 101.041 174.668 102.004 173.129C102.966 171.59 101.041 170.666 102.004 169.743C102.966 168.819 103.608 168.511 102.966 167.895C102.325 167.28 101.683 159.583 101.683 159.583C101.683 159.583 103.287 150.655 102.645 149.423C102.004 148.192 101.041 146.96 101.683 146.037C102.325 145.113 102.966 145.421 103.287 144.19C103.608 142.958 104.25 140.187 104.25 140.187L107.781 139.88L116.127 141.419C116.127 141.419 125.435 151.271 135.707 154.349C135.707 154.349 138.596 157.12 139.559 157.12C140.522 157.12 140.522 157.12 140.201 157.736C139.88 158.352 138.917 158.352 139.559 158.967C140.201 159.583 141.164 158.659 140.522 159.583C139.88 160.507 139.238 160.507 139.88 161.122C140.522 161.738 139.559 165.125 139.559 165.432C139.559 165.74 136.67 194.68 137.633 195.296C138.596 195.911 152.077 197.758 153.04 195.296C154.003 192.833 152.398 189.754 152.398 189.754C152.398 189.754 157.213 152.81 155.929 150.347C154.645 147.884 150.151 136.801 126.077 129.72C126.077 129.72 119.337 128.488 119.337 127.565C119.337 126.641 118.695 120.792 117.411 120.484C116.127 120.176 108.744 119.868 108.744 119.868L99.4356 122.639L86.5963 120.484L80.1766 121.1Z" fill="#333333"/>
<path d="M91.411 172.821L89.806 178.363C89.806 178.363 88.5221 187.291 90.127 189.446C91.3877 191.139 93.6385 193.211 97.8128 193.575C98.9827 193.678 100.154 193.395 101.134 192.772C102.113 192.15 102.841 191.226 103.198 190.152C103.246 190.024 103.276 189.89 103.287 189.754C103.287 189.138 102.324 181.749 102.324 181.749L100.72 174.053L100.399 171.897L91.411 172.821Z" fill="#333333"/>
<path d="M138.275 199.297C138.275 199.297 136.67 197.758 136.349 199.297C136.028 200.837 134.744 207.302 136.991 207.61C139.238 207.918 160.744 210.996 162.991 209.765C165.238 208.533 169.41 206.686 166.842 205.763C164.275 204.839 156.892 202.068 156.892 202.068C156.892 202.068 152.719 196.835 152.077 196.527C151.435 196.219 147.904 196.835 146.299 198.066C144.695 199.297 138.275 199.297 138.275 199.297Z" fill="#333333"/>
<path d="M103.93 73.3802C109.425 73.3802 113.88 69.1073 113.88 63.8363C113.88 58.5654 109.425 54.2925 103.93 54.2925C98.434 54.2925 93.979 58.5654 93.979 63.8363C93.979 69.1073 98.434 73.3802 103.93 73.3802Z" fill="#FABBBB"/>
<path d="M102.967 85.3871L99.1148 81.3848L94.8452 73.3803C94.8452 73.3803 91.7321 72.4567 91.0902 73.996C90.4482 75.5353 78.8928 80.4612 78.8928 80.4612C78.8928 80.4612 81.7816 106.322 80.4977 108.785C79.2137 111.248 76.9668 121.1 78.8928 122.023C80.8187 122.947 89.8062 122.023 92.6951 123.255C95.584 124.486 103.93 124.486 106.176 122.947C108.423 121.407 109.065 120.176 111.312 121.1C113.225 121.886 117.697 95.0045 118.984 86.9938C119.093 86.321 119.003 85.6325 118.724 85.0063C118.446 84.38 117.99 83.841 117.409 83.4504C114.529 81.5127 109.342 78.1736 108.423 78.614C107.139 79.2297 102.967 85.3871 102.967 85.3871Z" fill="#004257"/>
<path d="M116.769 84.1558C117.523 84.3365 118.201 84.7341 118.712 85.2952C119.223 85.8563 119.543 86.5541 119.629 87.2947L122.226 109.709C122.226 109.709 115.806 122.947 112.596 114.019C109.386 105.091 116.769 84.1558 116.769 84.1558Z" fill="#004257"/>
<path d="M116.127 111.863L123.189 110.016C123.189 110.016 124.473 118.636 125.756 118.636C127.04 118.636 121.263 123.562 118.374 122.947C115.485 122.331 111.312 120.176 110.991 118.636C110.67 117.097 113.88 110.632 113.88 110.632L116.127 111.863Z" fill="#004257"/>
<path d="M96.4178 67.9535C97.0944 66.5225 96.977 64.8533 97.5363 63.3765C97.8359 62.5858 98.322 61.8721 98.9566 61.2914C99.5913 60.7106 100.357 60.2784 101.195 60.0286C102.033 59.7788 102.919 59.7181 103.785 59.8513C104.651 59.9845 105.474 60.308 106.188 60.7964C106.907 61.2885 107.629 61.9799 108.507 61.8859C109.453 61.7848 110.297 60.7727 111.166 61.1436C112.13 61.5547 111.87 63.2115 112.846 63.5942C113.36 63.7956 113.968 63.4854 114.264 63.0352C114.523 62.562 114.665 62.0376 114.677 61.5032C114.812 60.1901 114.933 58.8004 114.34 57.6102C114.09 57.2068 113.872 56.7859 113.689 56.3511C113.585 55.945 113.543 55.5266 113.565 55.109C113.559 53.5656 113.442 51.9558 112.632 50.6221C111.734 49.1421 110.072 48.1958 108.34 47.7829C106.607 47.3699 104.791 47.4332 103.012 47.5777C100.071 47.8165 97.0032 48.3285 94.6859 50.0822C94.3709 50.3029 94.0999 50.5761 93.8856 50.8887C93.6822 51.2601 93.5385 51.6588 93.4593 52.0713C92.9583 54.0282 92.2071 55.9181 91.2228 57.6983C90.7493 58.4529 90.3624 59.2545 90.0687 60.089C89.823 60.937 89.8396 61.9034 90.354 62.6322C90.7728 63.2256 91.4423 63.5419 91.9683 64.027C92.4896 64.5077 92.7335 65.4322 93.3109 65.7962C93.8149 66.114 94.4187 65.8897 94.9328 66.2265C95.5928 66.6589 95.6405 67.607 96.4178 67.9535Z" fill="#333333"/>
<path d="M104.571 90.0049L105.534 88.1577C105.534 88.1577 119.658 92.16 122.547 95.8544C122.547 95.8544 129.608 91.5442 133.46 92.16L137.312 92.7757L125.435 102.935L110.349 101.704L104.571 90.0049Z" fill="#CCCCCC"/>
<path d="M103.93 88.1577L90.7692 105.706L109.707 114.634C109.707 114.634 111.478 115.558 112.839 114.634L125.436 109.093L137.312 92.7757L125.436 98.6252C125.436 98.6252 124.152 96.1622 121.584 97.3937L103.93 88.1577Z" fill="#28A1C7"/>
<path d="M124.152 119.253L126.719 112.787C126.719 112.787 132.497 105.706 129.287 102.32C126.077 98.9334 122.547 112.172 122.547 112.172L124.152 119.253Z" fill="#FABBBB"/>
<path d="M94.5238 118.22L100.127 113.863C100.127 113.863 108.829 110.518 107.824 106.044C106.819 101.57 96.8395 111.323 96.8395 111.323L94.5238 118.22Z" fill="#FABBBB"/>
<path opacity="0.1" d="M80.6581 87.0802H80.3371C80.3371 87.0802 75.3618 81.3846 74.3989 89.0813C73.4359 96.778 70.2261 122.331 78.5717 123.255C86.9173 124.178 92.8555 119.406 92.8555 119.406C92.8555 119.406 98.9542 110.478 96.7073 110.478C95.6202 110.478 92.6635 110.01 89.9667 110.17C87.0898 110.341 84.5047 111.119 84.6704 110.324C84.9914 108.785 89.6457 89.2352 80.6581 87.0802Z" fill="black"/>
<path d="M80.1766 81.0767L78.8926 80.4609C78.8926 80.4609 73.7569 81.3845 72.7939 89.0812C71.831 96.7779 68.6211 122.331 76.9667 123.254C85.3123 124.178 96.5468 122.023 96.5468 122.023C96.5468 122.023 98.7937 110.324 96.5468 110.324C94.2999 110.324 82.7444 111.863 83.0654 110.324C83.3864 108.785 89.1641 83.2317 80.1766 81.0767Z" fill="#004257"/>
<path d="M119.497 115.712L123.037 110.509L125.275 119.099L119.497 121.562V115.712Z" fill="#004257"/>
<path d="M46.7856 41.5159C51.572 41.5159 55.4522 37.7943 55.4522 33.2035C55.4522 28.6127 51.572 24.8911 46.7856 24.8911C41.9992 24.8911 38.119 28.6127 38.119 33.2035C38.119 37.7943 41.9992 41.5159 46.7856 41.5159Z" fill="#CCCCCC"/>
<path d="M57.0571 95.085H36.514V114.788H57.0571V95.085Z" fill="#CCCCCC"/>
<path d="M130.411 7L135.61 15.6378L140.81 24.2756H130.411H120.012L125.211 15.6378L130.411 7Z" fill="#CCCCCC"/>
<path d="M221.004 58.792C220.88 62.4773 219.944 65.4311 218.197 67.6535C216.45 69.8762 214.374 70.9876 211.97 70.9878C210.011 70.9878 208.295 69.9001 206.82 67.7248C205.345 65.5496 204.608 62.2035 204.608 57.6866C204.608 56.6881 204.633 55.7371 204.683 54.8337C204.732 53.9305 204.794 53.0747 204.868 52.2662L206.17 40.534H197.581C196.094 55.3686 194.873 64.1945 193.919 67.0117C192.965 69.8288 191.347 71.2373 189.067 71.2374C188.038 71.2132 187.056 70.8186 186.316 70.132C185.887 69.7673 185.547 69.3159 185.322 68.8102C185.097 68.3045 184.992 67.7572 185.015 67.2078C185.015 66.1146 185.913 64.5872 187.71 62.6255C189.507 60.6641 190.505 58.8752 190.703 57.2586L192.934 40.534H189.327C188.311 40.5398 187.31 40.7782 186.409 41.2294C185.579 41.5948 184.857 42.1524 184.308 42.8519L182.709 45.1341H181.408C182.622 41.5208 184.116 38.8047 185.888 36.9858C187.66 35.1671 189.699 34.2578 192.004 34.2578H220.41V40.534H210.817C210.52 43.3868 210.29 46.2396 210.129 49.0924C209.968 51.9452 209.887 54.8099 209.888 57.6865C209.888 59.6361 210.359 61.2171 211.301 62.4294C212.242 63.6418 213.42 64.248 214.833 64.248C215.7 64.248 216.611 63.9092 217.565 63.2316C218.019 62.9267 218.398 62.5314 218.677 62.0729C218.956 61.6144 219.129 61.1034 219.183 60.575C219.257 60.0523 219.313 59.6422 219.35 59.3447C219.387 59.0477 219.406 58.8635 219.406 58.792L221.004 58.792Z" fill="#28A1C7"/>
<path opacity="0.1" d="M221.004 58.792C220.88 62.4773 219.944 65.4311 218.197 67.6535C216.45 69.8762 214.374 70.9876 211.97 70.9878C210.011 70.9878 208.295 69.9001 206.82 67.7248C205.345 65.5496 204.608 62.2035 204.608 57.6866C204.608 56.6881 204.633 55.7371 204.683 54.8337C204.732 53.9305 204.794 53.0747 204.868 52.2662L206.17 40.534H197.581C196.094 55.3686 194.873 64.1945 193.919 67.0117C192.965 69.8288 191.347 71.2373 189.067 71.2374C188.038 71.2132 187.056 70.8186 186.316 70.132C185.887 69.7673 185.547 69.3159 185.322 68.8102C185.097 68.3045 184.992 67.7572 185.015 67.2078C185.015 66.1146 185.913 64.5872 187.71 62.6255C189.507 60.6641 190.505 58.8752 190.703 57.2586L192.934 40.534H189.327C188.311 40.5398 187.31 40.7782 186.409 41.2294C185.579 41.5948 184.857 42.1524 184.308 42.8519L182.709 45.1341H181.408C182.622 41.5208 184.116 38.8047 185.888 36.9858C187.66 35.1671 189.699 34.2578 192.004 34.2578H220.41V40.534H210.817C210.52 43.3868 210.29 46.2396 210.129 49.0924C209.968 51.9452 209.887 54.8099 209.888 57.6865C209.888 59.6361 210.359 61.2171 211.301 62.4294C212.242 63.6418 213.42 64.248 214.833 64.248C215.7 64.248 216.611 63.9092 217.565 63.2316C218.019 62.9267 218.398 62.5314 218.677 62.0729C218.956 61.6144 219.129 61.1034 219.183 60.575C219.257 60.0523 219.313 59.6422 219.35 59.3447C219.387 59.0477 219.406 58.8635 219.406 58.792L221.004 58.792Z" fill="black"/>
<path d="M221.004 57.6777C220.88 61.363 219.944 64.3168 218.197 66.5392C216.45 68.7619 214.374 69.8733 211.97 69.8735C210.011 69.8735 208.295 68.7859 206.82 66.6106C205.345 64.4353 204.608 61.0892 204.608 56.5723C204.608 55.5738 204.633 54.6229 204.683 53.7195C204.732 52.8162 204.794 51.9604 204.868 51.152L206.17 39.4198H197.581C196.094 54.2544 194.873 63.0802 193.919 65.8974C192.965 68.7145 191.347 70.1231 189.067 70.1232C188.038 70.0989 187.056 69.7043 186.316 69.0177C185.887 68.653 185.547 68.2016 185.322 67.6959C185.097 67.1902 184.992 66.6429 185.015 66.0935C185.015 65.0004 185.913 63.4729 187.71 61.5112C189.507 59.5499 190.505 57.7609 190.703 56.1444L192.934 39.4198H189.327C188.311 39.4256 187.31 39.664 186.409 40.1151C185.579 40.4806 184.857 41.0381 184.308 41.7376L182.709 44.0199H181.408C182.622 40.4065 184.116 37.6904 185.888 35.8716C187.66 34.0529 189.699 33.1435 192.004 33.1436H220.41V39.4198H210.817C210.52 42.2726 210.29 45.1254 210.129 47.9782C209.968 50.831 209.887 53.6957 209.888 56.5723C209.888 58.5219 210.359 60.1028 211.301 61.3151C212.242 62.5276 213.42 63.1338 214.833 63.1337C215.7 63.1337 216.611 62.7949 217.565 62.1174C218.019 61.8124 218.398 61.4172 218.677 60.9587C218.956 60.5001 219.129 59.9892 219.183 59.4608C219.257 58.9381 219.313 58.528 219.35 58.2305C219.387 57.9335 219.406 57.7492 219.406 57.6777H221.004Z" fill="#28A1C7"/>
</g>
<defs>
<filter id="filter0_d" x="0.00439453" y="0" width="231.004" height="232" filterUnits="userSpaceOnUse" color-interpolation-filters="sRGB">
<feFlood flood-opacity="0" result="BackgroundImageFix"/>
<feColorMatrix in="SourceAlpha" type="matrix" values="0 0 0 0 0 0 0 0 0 0 0 0 0 0 0 0 0 0 127 0"/>
<feOffset dy="4"/>
<feGaussianBlur stdDeviation="2"/>
<feColorMatrix type="matrix" values="0 0 0 0 0.4 0 0 0 0 0.4 0 0 0 0 0.4 0 0 0 0.25 0"/>
<feBlend mode="normal" in2="BackgroundImageFix" result="effect1_dropShadow"/>
<feBlend mode="normal" in="SourceGraphic" in2="effect1_dropShadow" result="shape"/>
</filter>
<clipPath id="clip0">
<rect width="210" height="210" fill="white" transform="translate(11.0044 7)"/>
</clipPath>
</defs>
</svg>
