<svg width="232" height="232" viewBox="0 0 232 232" fill="none" xmlns="http://www.w3.org/2000/svg">
<g filter="url(#filter0_d)">
<rect x="4" width="223.004" height="224" rx="10" fill="#F5DCDC"/>
</g>
<g clip-path="url(#clip0)">
<path d="M23.5537 205.71C23.5537 205.71 14.5658 205.03 15.6247 212.933C15.6247 212.933 15.4121 214.328 16.4221 214.962C16.4221 214.962 16.4391 214.376 17.3449 214.576C17.6672 214.644 17.9948 214.663 18.3209 214.634C18.7622 214.596 19.1817 214.379 19.5159 214.016C19.5159 214.016 22.0419 212.706 23.0264 207.527C23.0264 207.527 23.7536 206.396 23.7239 206.105L22.2078 206.905C22.2078 206.905 22.7245 208.279 22.3184 209.418C22.3184 209.418 22.2673 206.956 21.976 207.017C21.9165 207.031 21.1893 207.495 21.1893 207.495C21.1893 207.495 22.0802 209.895 21.4019 211.623C21.4019 211.623 21.6571 208.676 20.9043 207.665L19.8412 208.449C19.8412 208.449 20.8852 210.919 20.1771 212.933C20.1771 212.933 20.3579 209.842 19.6179 208.639L18.6504 209.586C18.6504 209.586 19.6286 212.021 19.0311 213.69C19.0311 213.69 18.9545 210.092 18.4399 209.82C18.4399 209.82 17.5894 210.756 17.464 211.154C17.464 211.154 18.1359 212.919 17.7191 213.853C17.7191 213.853 17.464 211.453 17.2556 211.453C17.2556 211.453 16.405 213.039 16.3242 214.12C16.3242 214.12 16.3604 212.498 17.0493 211.29C16.563 211.405 16.1143 211.696 15.7586 212.127C15.7586 212.127 15.8905 211.004 17.2577 210.906C17.2577 210.906 17.9551 209.703 18.1423 209.628C18.1423 209.628 16.7814 209.487 15.9564 209.946C15.9564 209.946 16.6815 208.879 18.391 209.367L19.3479 208.388C19.3479 208.388 17.5554 208.081 16.7963 208.42C16.7963 208.42 17.6702 207.484 19.6052 208.167L20.6449 207.388C20.6449 207.388 19.1161 206.975 18.206 207.121C18.206 207.121 19.1671 206.471 20.949 207.175L21.6932 206.756C21.6932 206.756 20.5726 206.489 20.2452 206.436C19.9177 206.383 19.9007 206.279 19.9007 206.279C20.6098 206.13 21.3379 206.232 22.0037 206.572C22.0037 206.572 23.5814 205.836 23.5537 205.71Z" fill="#990909"/>
<path opacity="0.1" d="M17.362 217C20.8756 217 23.7239 216.396 23.7239 215.65C23.7239 214.905 20.8756 214.301 17.362 214.301C13.8483 214.301 11 214.905 11 215.65C11 216.396 13.8483 217 17.362 217Z" fill="#990909"/>
<path d="M220.904 187.764C220.904 187.764 215.835 187.38 216.439 191.834C216.408 192.06 216.435 192.293 216.516 192.499C216.597 192.705 216.728 192.874 216.89 192.981C216.89 192.981 216.89 192.65 217.409 192.762C217.591 192.8 217.776 192.81 217.959 192.794C218.208 192.774 218.445 192.652 218.634 192.447C218.634 192.447 220.058 191.709 220.613 188.788C220.613 188.788 221.021 188.151 221.006 187.988L220.156 188.447C220.156 188.447 220.447 189.22 220.218 189.866C220.218 189.866 220.19 188.476 220.026 188.508C219.992 188.508 219.58 188.775 219.58 188.775C219.58 188.775 220.084 190.108 219.705 191.101C219.705 191.101 219.848 189.442 219.425 188.871L218.821 189.311C218.821 189.311 219.41 190.706 219.01 191.842C219.01 191.842 219.114 190.098 218.695 189.42L218.149 189.954C218.149 189.954 218.702 191.325 218.361 192.269C218.361 192.269 218.317 190.239 218.027 190.087C217.82 190.306 217.636 190.556 217.477 190.831C217.477 190.831 217.855 191.826 217.621 192.354C217.621 192.354 217.477 191.002 217.358 190.997C217.358 190.997 216.884 191.89 216.835 192.503C216.856 191.934 216.997 191.382 217.243 190.903C216.969 190.969 216.716 191.134 216.516 191.378C216.516 191.378 216.59 190.743 217.366 190.687C217.366 190.687 217.76 190.01 217.866 189.967C217.866 189.967 217.098 189.887 216.633 190.146C216.633 190.146 217.043 189.548 218.006 189.82L218.544 189.268C218.544 189.268 217.534 189.095 217.107 189.287C217.107 189.287 217.6 188.754 218.689 189.143L219.276 188.703C218.825 188.579 218.363 188.53 217.902 188.556C217.902 188.556 218.442 188.188 219.448 188.586L219.873 188.348C219.873 188.348 219.235 188.194 219.059 188.17C218.882 188.146 218.863 188.082 218.863 188.082C219.263 187.998 219.674 188.055 220.05 188.247C220.05 188.247 220.919 187.834 220.904 187.764Z" fill="#990909"/>
<path opacity="0.1" d="M217.413 194.128C219.394 194.128 221 193.787 221 193.368C221 192.948 219.394 192.607 217.413 192.607C215.432 192.607 213.826 192.948 213.826 193.368C213.826 193.787 215.432 194.128 217.413 194.128Z" fill="#990909"/>
<path d="M210.481 199.891C210.481 199.891 204.361 199.43 205.093 204.812C205.056 205.085 205.088 205.366 205.186 205.615C205.284 205.863 205.442 206.067 205.637 206.196C205.637 206.196 205.637 205.796 206.275 205.929C206.495 205.976 206.718 205.989 206.941 205.969C207.241 205.943 207.526 205.795 207.753 205.548C207.753 205.548 209.473 204.657 210.141 201.131C210.141 201.131 210.636 200.361 210.617 200.163L209.584 200.718C209.584 200.718 209.937 201.651 209.66 202.428C209.66 202.428 209.626 200.75 209.429 200.79C209.388 200.79 208.891 201.113 208.891 201.113C208.891 201.113 209.499 202.742 209.039 203.924C209.039 203.924 209.214 201.918 208.701 201.233L207.974 201.766C207.974 201.766 208.684 203.449 208.204 204.82C208.204 204.82 208.327 202.716 207.821 201.886L207.164 202.529C207.164 202.529 207.83 204.188 207.423 205.324C207.423 205.324 207.37 202.876 207.019 202.692C207.019 202.692 206.443 203.326 206.356 203.59C206.356 203.59 206.813 204.793 206.53 205.428C206.53 205.428 206.356 203.796 206.214 203.788C206.214 203.788 205.639 204.868 205.576 205.609C205.604 204.924 205.775 204.261 206.071 203.684C205.74 203.762 205.434 203.961 205.191 204.254C205.191 204.254 205.28 203.492 206.211 203.425C206.211 203.425 206.686 202.604 206.813 202.553C206.813 202.553 205.886 202.457 205.325 202.769C205.325 202.769 205.82 202.049 206.983 202.377L207.634 201.71C207.634 201.71 206.413 201.499 205.897 201.731C205.897 201.731 206.492 201.094 207.81 201.558L208.518 201.025C208.518 201.025 207.479 200.745 206.86 200.846C206.86 200.846 207.513 200.403 208.727 200.883L209.233 200.598C209.233 200.598 208.47 200.409 208.248 200.379C208.027 200.35 208.012 200.273 208.012 200.273C208.495 200.172 208.99 200.241 209.443 200.473C209.443 200.473 210.498 199.977 210.481 199.891Z" fill="#990909"/>
<path opacity="0.1" d="M206.265 207.575C208.657 207.575 210.596 207.164 210.596 206.657C210.596 206.151 208.657 205.74 206.265 205.74C203.873 205.74 201.933 206.151 201.933 206.657C201.933 207.164 203.873 207.575 206.265 207.575Z" fill="#990909"/>
<path opacity="0.1" d="M182.273 204.58C193.116 204.58 201.906 202.859 201.906 200.737C201.906 198.614 193.116 196.894 182.273 196.894C171.431 196.894 162.641 198.614 162.641 200.737C162.641 202.859 171.431 204.58 182.273 204.58Z" fill="#990909"/>
<path opacity="0.1" d="M120.149 214.581C132.332 214.581 142.209 213.338 142.209 211.805C142.209 210.271 132.332 209.028 120.149 209.028C107.965 209.028 98.0879 210.271 98.0879 211.805C98.0879 213.338 107.965 214.581 120.149 214.581Z" fill="#990909"/>
<path opacity="0.1" d="M53.3117 211.823C62.5596 211.823 70.0565 211.243 70.0565 210.527C70.0565 209.811 62.5596 209.231 53.3117 209.231C44.0638 209.231 36.5669 209.811 36.5669 210.527C36.5669 211.243 44.0638 211.823 53.3117 211.823Z" fill="#990909"/>
<path opacity="0.1" d="M83.042 16.1344C89.253 9.20019 99.0043 7.77868 107.877 8.33075C135.751 10.067 160.912 26.9464 182.677 46.0395C190.557 52.9497 198.314 60.3987 203.428 69.9172C213.847 89.2904 210.751 116.131 196.275 132.093C191.348 137.523 185.378 141.694 179.248 145.377C168.348 151.941 156.587 157.208 144.218 158.713C135.396 159.779 126.466 158.913 117.697 157.419C93.1931 153.248 69.1422 144.031 48.9847 128.269C40.1434 121.334 31.8082 112.747 28.1637 101.559C24.5192 90.3705 26.8518 76.1927 35.8801 69.5705C39.614 66.8315 44.0792 65.594 48.4488 64.4339C54.8831 62.7243 61.4194 61.0388 67.2264 57.561C73.2226 53.9712 80.3224 47.029 79.1338 39.084C77.8623 30.5576 76.8395 23.0686 83.042 16.1344Z" fill="#990909"/>
<path opacity="0.9" d="M134.51 111.488V60.5642H140.038V45.3623H100.425V60.5642H105.953V111.488C98.3184 115.125 91.7457 121.588 87.1073 130.019C82.4689 138.45 79.984 148.451 79.9822 158.694C79.9822 186.578 98.0049 209.18 120.236 209.18C142.466 209.18 160.487 186.578 160.487 158.694C160.485 148.449 157.999 138.448 153.36 130.017C148.72 121.586 142.146 115.123 134.51 111.488Z" fill="#B1D3DE"/>
<path opacity="0.1" d="M134.51 60.4067H105.945V61.0922H134.51V60.4067Z" fill="black"/>
<path d="M97.7136 157.339C97.7136 157.339 121.954 156.806 134.074 149.197C146.194 141.588 153.119 148.381 152.469 152.997C151.818 157.614 148.358 166.567 134.508 167.666C120.657 168.765 97.7136 157.339 97.7136 157.339Z" fill="#990909"/>
<path opacity="0.1" d="M97.7136 157.339C97.7136 157.339 121.954 156.806 134.074 149.197C146.194 141.588 153.119 148.381 152.469 152.997C151.818 157.614 148.358 166.567 134.508 167.666C120.657 168.765 97.7136 157.339 97.7136 157.339Z" fill="black"/>
<path d="M87.3329 152.458C87.3329 152.458 84.7431 197.518 118.711 198.331C152.679 199.144 152.471 152.992 152.471 152.992C152.471 152.992 139.925 170.09 110.272 155.976C110.272 155.987 94.9069 150.829 87.3329 152.458Z" fill="#990909"/>
<path opacity="0.1" d="M152.36 153.155C151.682 163.535 147.283 196.027 118.724 195.341C90.7287 194.677 87.5584 163.98 87.3096 153.181C87.1544 158.977 87.2926 197.574 118.718 198.328C152.694 199.128 152.477 152.989 152.477 152.989C152.477 152.989 152.435 153.056 152.36 153.155Z" fill="black"/>
<path opacity="0.3" d="M118.917 138.545C121.352 138.545 123.325 136.069 123.325 133.016C123.325 129.963 121.352 127.487 118.917 127.487C116.483 127.487 114.51 129.963 114.51 133.016C114.51 136.069 116.483 138.545 118.917 138.545Z" fill="#990909"/>
<path opacity="0.3" d="M121.435 114.32C122.942 114.32 124.163 112.788 124.163 110.898C124.163 109.009 122.942 107.477 121.435 107.477C119.928 107.477 118.707 109.009 118.707 110.898C118.707 112.788 119.928 114.32 121.435 114.32Z" fill="#990909"/>
<path opacity="0.3" d="M115.347 94.5711C116.854 94.5711 118.075 93.0391 118.075 91.1493C118.075 89.2595 116.854 87.7275 115.347 87.7275C113.841 87.7275 112.619 89.2595 112.619 91.1493C112.619 93.0391 113.841 94.5711 115.347 94.5711Z" fill="#990909"/>
<path opacity="0.2" d="M91.9725 137.28C91.7386 139.611 91.7853 142.529 93.446 143.617C92.0533 142.705 97.7624 132.362 96.9523 130.25C95.2193 125.743 92.1851 135.115 91.9725 137.28Z" fill="#FAFAFA"/>
<path opacity="0.3" d="M113.142 35.201C115.577 35.201 117.55 32.7257 117.55 29.6723C117.55 26.6188 115.577 24.1436 113.142 24.1436C110.708 24.1436 108.734 26.6188 108.734 29.6723C108.734 32.7257 110.708 35.201 113.142 35.201Z" fill="#990909"/>
<path opacity="0.3" d="M126.366 24.3037C128.175 24.3037 129.642 22.4636 129.642 20.1938C129.642 17.924 128.175 16.084 126.366 16.084C124.556 16.084 123.089 17.924 123.089 20.1938C123.089 22.4636 124.556 24.3037 126.366 24.3037Z" fill="#990909"/>
<path opacity="0.3" d="M116.921 11.2725C117.861 11.2725 118.624 10.3161 118.624 9.13627C118.624 7.95644 117.861 7 116.921 7C115.98 7 115.218 7.95644 115.218 9.13627C115.218 10.3161 115.98 11.2725 116.921 11.2725Z" fill="#990909"/>
<path opacity="0.9" d="M71.3472 77.1904H35.7249V90.4428H41.1534V193.832C41.1319 195.889 41.4363 197.931 42.0491 199.839C42.6618 201.748 43.5707 203.484 44.7228 204.948C45.875 206.413 47.2475 207.575 48.7608 208.369C50.2741 209.162 51.8979 209.571 53.5381 209.571C55.1783 209.571 56.8022 209.162 58.3154 208.369C59.8287 207.575 61.2013 206.413 62.3534 204.948C63.5056 203.484 64.4144 201.748 65.0272 199.839C65.6399 197.931 65.9444 195.889 65.9229 193.832V90.4428H71.3472V77.1904Z" fill="#B1D3DE"/>
<path d="M49.4056 113.867C49.4056 113.867 58.2214 109.917 60.6752 112.726C60.6752 112.726 57.1051 119.308 53.8178 119.044C50.5305 118.78 49.4056 113.867 49.4056 113.867Z" fill="#990909"/>
<path opacity="0.1" d="M49.4056 113.867C49.4056 113.867 58.2214 109.917 60.6752 112.726C60.6752 112.726 57.1051 119.308 53.8178 119.044C50.5305 118.78 49.4056 113.867 49.4056 113.867Z" fill="black"/>
<path d="M60.6709 112.736V187.775C60.6709 189.02 60.4755 190.252 60.0957 191.402C59.7159 192.552 59.1593 193.597 58.4575 194.477C57.7558 195.358 56.9227 196.056 56.0059 196.532C55.089 197.008 54.1064 197.254 53.114 197.254C51.1097 197.254 49.1876 196.255 47.7704 194.477C46.3532 192.7 45.557 190.289 45.557 187.775V112.736C45.557 112.736 49.1952 111.507 52.6228 114.142C56.0504 116.777 60.6709 112.736 60.6709 112.736Z" fill="#990909"/>
<path opacity="0.1" d="M65.9187 90.3599H41.1492V90.9706H65.9187V90.3599Z" fill="black"/>
<path opacity="0.1" d="M53.114 192.69C52.1214 192.69 51.1385 192.445 50.2216 191.968C49.3046 191.492 48.4714 190.793 47.7696 189.913C47.0679 189.033 46.5113 187.987 46.1316 186.837C45.752 185.687 45.5567 184.454 45.557 183.209V187.948C45.557 190.462 46.3532 192.873 47.7704 194.651C49.1876 196.428 51.1097 197.427 53.114 197.427C55.1182 197.427 57.0403 196.428 58.4575 194.651C59.8747 192.873 60.6709 190.462 60.6709 187.948V183.209C60.6712 184.454 60.4759 185.687 60.0963 186.837C59.7166 187.987 59.1601 189.033 58.4583 189.913C57.7565 190.793 56.9234 191.492 56.0064 191.968C55.0894 192.445 54.1065 192.69 53.114 192.69Z" fill="black"/>
<path opacity="0.3" d="M53.1161 105.367C53.9663 105.367 54.6556 104.503 54.6556 103.436C54.6556 102.37 53.9663 101.505 53.1161 101.505C52.2659 101.505 51.5767 102.37 51.5767 103.436C51.5767 104.503 52.2659 105.367 53.1161 105.367Z" fill="#990909"/>
<path opacity="0.3" d="M58.1533 97.8193C58.6947 97.8193 59.1336 97.2689 59.1336 96.5898C59.1336 95.9108 58.6947 95.3604 58.1533 95.3604C57.612 95.3604 57.1731 95.9108 57.1731 96.5898C57.1731 97.2689 57.612 97.8193 58.1533 97.8193Z" fill="#990909"/>
<path opacity="0.3" d="M51.2959 95.3633C51.8373 95.3633 52.2761 94.8128 52.2761 94.1338C52.2761 93.4548 51.8373 92.9043 51.2959 92.9043C50.7545 92.9043 50.3157 93.4548 50.3157 94.1338C50.3157 94.8128 50.7545 95.3633 51.2959 95.3633Z" fill="#990909"/>
<path opacity="0.2" d="M43.0671 128.066C42.8332 130.397 42.8799 133.314 44.5406 134.403C43.1457 133.491 48.857 123.151 48.0469 121.036C46.3097 116.534 43.2797 125.903 43.0671 128.066Z" fill="#FAFAFA"/>
<path opacity="0.3" d="M56.3098 68.8986C58.3754 68.8986 60.05 66.7983 60.05 64.2074C60.05 61.6165 58.3754 59.5161 56.3098 59.5161C54.2441 59.5161 52.5696 61.6165 52.5696 64.2074C52.5696 66.7983 54.2441 68.8986 56.3098 68.8986Z" fill="#990909"/>
<path opacity="0.3" d="M45.0892 59.6522C46.6252 59.6522 47.8704 58.0904 47.8704 56.1637C47.8704 54.2371 46.6252 52.6753 45.0892 52.6753C43.5532 52.6753 42.308 54.2371 42.308 56.1637C42.308 58.0904 43.5532 59.6522 45.0892 59.6522Z" fill="#990909"/>
<path opacity="0.3" d="M53.1034 48.5944C53.9019 48.5944 54.5493 47.7825 54.5493 46.7809C54.5493 45.7792 53.9019 44.9673 53.1034 44.9673C52.3048 44.9673 51.6575 45.7792 51.6575 46.7809C51.6575 47.7825 52.3048 48.5944 53.1034 48.5944Z" fill="#990909"/>
<path d="M201.489 127.367C201.489 127.367 198.225 107.008 199.473 104.474C199.473 104.474 199.518 102.119 199.443 99.1186C199.443 99.0039 199.443 98.8892 199.443 98.7719C199.662 98.9589 199.891 99.1265 200.128 99.2733C201.279 100.017 202.601 100.232 203.864 99.8787L202.871 98.4972C202.635 98.1665 202.386 97.8117 202.335 97.3744C202.322 96.9536 202.395 96.5357 202.548 96.1609C203.486 93.1871 203.543 89.4453 201.727 87.1757C200.2 85.2662 199.826 82.8018 198.176 81.0603C196.964 79.7828 196.299 77.9105 195.669 76.105C195.138 74.5741 194.606 73.0326 194.298 71.4111C194.06 70.1442 193.966 68.8347 193.639 67.5972C193.311 66.3598 192.703 65.1569 191.748 64.6049C191.394 64.4497 191.051 64.2588 190.721 64.0341C190.313 63.6901 190.068 63.13 189.775 62.6419C188.287 60.159 183.268 61.6205 180.896 62.6286C180.251 62.8821 179.654 63.2967 179.141 63.8474L179.163 63.8021L179.222 63.6927C178.963 63.956 178.739 64.2693 178.559 64.6209C178.212 65.3089 178.067 66.117 177.78 66.8425C177.432 67.7226 175.497 70.1789 176.328 71.1684C176.385 71.2346 176.451 71.2886 176.522 71.3284C176.832 71.4873 177.173 71.53 177.502 71.4511C177.489 71.4857 177.476 71.5204 177.466 71.5551C177.183 72.4284 177.039 73.3623 177.04 74.3048C177.055 76.2778 177.693 78.163 178.815 79.5459C179.937 80.9288 181.451 81.6961 183.024 81.679C183.646 81.6802 184.264 81.5615 184.857 81.327C184.872 81.4203 184.884 81.5137 184.897 81.607C184.897 81.647 184.897 81.6844 184.912 81.7217L184.808 81.9057L184.791 81.871L181.689 87.3117C181.214 87.7278 178.482 90.2081 178.335 92.067C178.174 94.1019 178.012 96.4862 178.012 96.4862L177.991 96.9956C177.855 97.1375 177.697 97.241 177.527 97.299C177.357 97.357 177.178 97.3681 177.004 97.3317C176.037 97.1317 176.037 101.802 176.037 101.802C176.037 101.802 175.399 102.546 174.95 101.9C174.502 101.255 173.339 103.439 173.339 103.439L166.005 103.837H165.837L165.441 102.3C165.398 102.142 165.307 102.01 165.188 101.934C165.07 101.857 164.932 101.841 164.803 101.89C164.772 101.9 164.742 101.915 164.714 101.935L164.689 101.956C164.67 101.969 164.653 101.984 164.638 102.002C164.627 102.01 164.618 102.02 164.61 102.031C164.595 102.046 164.582 102.063 164.57 102.082C164.562 102.093 164.555 102.104 164.548 102.116L164.536 102.132C164.49 102.211 164.46 102.303 164.447 102.399C164.435 102.495 164.44 102.594 164.463 102.687L164.803 104.005C163.389 104.362 161.941 105.367 163.122 108.141L157.142 106.757L159.077 108.792L169.071 111.379C168.939 111.678 169.026 112.107 169.439 112.712C171.214 115.331 174.459 116.041 175.763 116.227C176.105 117.191 176.533 118.102 177.038 118.945L176.924 121.553C176.924 121.553 173.623 141.447 173.017 142.457C173.317 142.021 173.591 141.557 173.836 141.071C172.877 145.159 171.538 150.754 171.187 151.592C170.621 152.925 170.098 158.345 170.742 158.694C170.944 158.801 171.504 158.75 172.309 158.673V159.121L172.273 176.123C172.273 176.123 172.435 186.554 171.99 187.546C171.546 188.538 171.427 190.624 171.427 190.624C171.427 190.624 169.645 194.739 168.237 196.392L168.206 196.427L168.161 196.038C168.161 196.038 166.46 198.721 162.722 198.571C162.722 198.571 160.466 200.409 163.81 200.507C167.155 200.606 171.425 200.358 171.425 200.358C171.425 200.358 174.402 194.648 176.904 195.392V199.713H177.67V195.355C178.025 195.061 178.328 194.68 178.562 194.235C178.796 193.79 178.956 193.29 179.031 192.765C179.097 192.226 179.049 191.674 178.893 191.164C178.737 190.655 178.477 190.206 178.14 189.861C177.988 189.688 177.866 189.479 177.782 189.245C177.698 189.011 177.653 188.757 177.651 188.501L177.623 188.53C177.623 188.445 177.606 188.357 177.595 188.263C177.383 186.028 177.104 181.43 178.074 178.022C179.403 173.352 179.807 166.85 178.839 162.975C178.528 161.738 178.272 160.479 178.074 159.206C178.05 159.044 178.027 158.892 178.008 158.747C178.67 158.861 179.326 159.029 179.971 159.252C182.216 160.025 187.121 160.169 191.31 160.129C191.321 160.273 191.334 160.422 191.346 160.574C191.423 161.622 191.581 162.659 191.818 163.668C192.342 165.658 192.584 174.395 192.584 174.395C192.584 174.395 193.262 181.582 192.892 184.511C192.68 186.138 192.501 187.77 192.384 189.41V189.442C192.384 189.442 191.274 193.413 190.47 195.576C190.449 195.632 190.43 195.686 190.409 195.739C190.191 195.764 189.977 195.822 189.771 195.912C189.771 195.912 188.684 198.643 187.596 199.091C186.507 199.539 186.87 201.028 189.328 200.481C191.787 199.934 195.495 199.489 195.495 199.489L195.656 196.707L196.411 195.523L196.22 198.297L197.026 198.099L196.919 194.723L198.155 192.784C198.155 192.784 199.643 191.12 197.43 187.845V187.914C197.406 187.866 197.383 187.818 197.357 187.772V187.756C196.992 187.042 196.698 185.711 197.234 183.348C198.202 179.081 198.765 175.206 198.765 175.206C198.765 175.206 200.928 164.828 198.327 159.916H198.444C198.177 159.225 197.988 158.49 197.883 157.734C197.87 157.643 197.859 157.55 197.847 157.467C199.76 157.329 201.659 156.891 203.196 155.952C203.179 155.923 202.254 131.291 201.489 127.367ZM177.072 110.192V110.24L176.675 110.264L177.072 110.192ZM175.718 110.427C175.653 110.444 175.591 110.481 175.539 110.533C175.37 110.835 175.263 111.185 175.229 111.552L174.612 111.376C174.612 111.376 174.187 111.261 173.549 111.133L173.253 110.763C174.074 110.667 174.916 110.552 175.718 110.427Z" fill="#E8E8E8"/>
<path d="M196.12 194.746L195.884 198.261L196.673 198.061L196.554 194.253L196.12 194.746Z" fill="#004257"/>
<path d="M178.129 178.07C177.179 181.465 177.451 186.049 177.663 188.276C177.742 189.1 177.814 189.61 177.814 189.61C177.814 189.61 176.394 193.669 176.275 193.818C176.156 193.968 172.09 197.077 172.09 197.077L169.25 199.155C169.25 199.155 166.368 197.571 167.761 197.021C168.043 196.879 168.297 196.661 168.505 196.384C169.883 194.736 171.629 190.636 171.629 190.636C171.629 190.636 171.746 188.559 172.18 187.569C172.613 186.58 172.456 176.187 172.456 176.187L172.492 159.241V157.032L177.897 157.083C177.932 157.833 178.01 158.579 178.131 159.315C178.326 160.584 178.577 161.837 178.884 163.07C179.824 166.94 179.43 173.416 178.129 178.07Z" fill="#FABBBB"/>
<path opacity="0.1" d="M177.812 189.61C177.812 189.61 176.392 193.669 176.273 193.818C176.154 193.968 172.09 197.077 172.09 197.077L169.25 199.155C169.25 199.155 166.368 197.571 167.761 197.021C168.043 196.879 168.297 196.662 168.505 196.384L168.629 197.467L169.577 197.416L177.663 188.276C177.74 189.098 177.812 189.61 177.812 189.61Z" fill="black"/>
<path d="M177.715 188.511L169.566 197.718L168.618 197.766L168.423 196.035C168.423 196.035 166.764 198.702 163.094 198.558C163.094 198.558 160.885 200.39 164.157 200.489C167.43 200.587 171.616 200.339 171.616 200.339C171.616 200.339 174.536 194.648 176.981 195.392V199.697H177.732V195.341C178.081 195.046 178.379 194.666 178.607 194.223C178.836 193.779 178.991 193.283 179.063 192.762C179.128 192.226 179.082 191.678 178.929 191.171C178.777 190.664 178.522 190.214 178.191 189.866C178.042 189.693 177.923 189.483 177.841 189.25C177.759 189.017 177.716 188.766 177.715 188.511Z" fill="#004257"/>
<path d="M196.87 183.363C196.345 185.718 196.632 187.044 196.989 187.756V187.772C197.454 188.653 197.777 189.64 197.94 190.676L197.974 190.9L194.266 197.68L192.254 198.669C192.254 198.669 189.018 197.285 189.609 196.888C189.758 196.789 189.99 196.277 190.247 195.554C191.04 193.421 192.129 189.458 192.129 189.458V189.423C192.241 187.788 192.424 186.161 192.626 184.54C192.988 181.625 192.324 174.461 192.324 174.461C192.324 174.461 192.088 165.753 191.574 163.772C191.342 162.765 191.188 161.732 191.112 160.689C191.006 159.443 190.983 158.427 190.983 158.427C190.983 158.427 193.109 154.715 197.019 158.723C197.33 159.045 197.604 159.419 197.834 159.835C200.532 164.636 198.361 175.253 198.361 175.253C198.361 175.253 197.817 179.11 196.87 183.363Z" fill="#FABBBB"/>
<path opacity="0.1" d="M197.974 190.887L194.266 197.667L192.254 198.656C192.254 198.656 189.018 197.272 189.609 196.875C189.758 196.776 189.99 196.264 190.247 195.541C191.616 195.541 192.326 197.163 192.326 197.163L194.062 196.819C194.062 196.819 196.352 191.175 196.864 190.831C197.376 190.487 196.943 188.255 196.943 188.255V187.687L196.983 187.748V187.764C197.451 188.647 197.776 189.637 197.94 190.677L197.974 190.887Z" fill="black"/>
<path d="M192.45 197.32C192.45 197.32 191.463 195.045 189.571 195.885C189.571 195.885 188.508 198.608 187.445 199.054C186.381 199.499 186.734 200.982 189.146 200.438C191.557 199.894 195.182 199.448 195.182 199.448L195.34 196.677L197.785 192.768C197.785 192.768 199.246 191.109 197.075 187.844V188.412C197.075 188.412 197.5 190.639 196.996 190.986C196.492 191.333 194.196 196.973 194.196 196.973L192.45 197.32Z" fill="#004257"/>
<path opacity="0.1" d="M177.891 157.086C177.926 157.836 178.004 158.582 178.125 159.318C175.898 158.907 173.834 159.113 172.481 159.243V157.035L177.891 157.086Z" fill="black"/>
<path opacity="0.1" d="M198.053 160.452C198.053 160.452 194.889 160.644 191.121 160.684C191.015 159.438 190.991 158.422 190.991 158.422C190.991 158.422 193.118 154.71 197.028 158.718C197.339 159.04 197.613 159.414 197.842 159.83C197.904 160.042 197.974 160.249 198.053 160.452Z" fill="black"/>
<path d="M198.053 160.006C198.053 160.006 184.204 160.846 179.979 159.363C175.754 157.88 171.576 159.163 170.944 158.816C170.313 158.47 170.827 153.077 171.37 151.741C171.912 150.405 174.961 136.894 174.961 136.894L177.88 117.79L180.959 116.723L181.172 116.648L186.532 114.782L190.464 113.421C190.464 113.421 198.276 151.677 197.604 154.493C197.361 155.574 197.322 156.711 197.491 157.814C197.597 158.574 197.786 159.311 198.053 160.006Z" fill="#004257"/>
<path d="M167.712 104.725C167.712 104.725 164.948 108.437 167.04 110.515C169.133 112.592 170.513 110.715 170.513 110.715L167.712 104.725Z" fill="#77B4C7"/>
<path opacity="0.1" d="M167.712 104.725C167.712 104.725 164.948 108.437 167.04 110.515C169.133 112.592 170.513 110.715 170.513 110.715L167.712 104.725Z" fill="black"/>
<path d="M190.064 80.2786C190.064 80.2786 189.741 80.6626 189.252 81.236C188.557 82.0494 187.528 83.2416 186.613 84.2417C185.337 85.6232 184.306 86.642 184.678 85.7699C185.05 84.8978 184.98 83.3989 184.795 81.9881L184.757 81.7081C184.603 80.672 184.398 79.6486 184.145 78.6437C184.145 78.6437 186.188 75.3313 187.319 74.0244C187.744 73.5364 188.036 73.3283 188.051 73.6697C188.072 74.1338 188.35 75.1472 188.688 76.246C188.701 76.2781 188.712 76.3127 188.723 76.3447C188.952 77.0835 189.209 77.8542 189.437 78.513C189.784 79.5238 190.064 80.2786 190.064 80.2786Z" fill="#FABBBB"/>
<path opacity="0.1" d="M188.72 76.345C188.528 77.6407 188.062 78.848 187.371 79.8407C186.68 80.8334 185.789 81.5751 184.791 81.9883C184.634 80.8564 184.417 79.739 184.14 78.6439C184.14 78.6439 187.987 72.4085 188.046 73.67C188.082 74.15 188.367 75.2115 188.72 76.345Z" fill="black"/>
<path opacity="0.1" d="M184.412 83.6553L184.91 82.7778C184.91 82.7778 185.239 85.3008 186.454 84.1887C187.668 83.0765 187.729 92.5631 187.729 92.5631L186.424 116.988L177.013 116.281L177.278 104.479L178.342 98.5398L180.976 89.8907L182.554 87.0344L184.412 83.6553Z" fill="black"/>
<path d="M187.725 92.7122L186.547 114.795L186.424 117.134L181.176 116.742L180.963 116.726L177.006 116.43L177.272 104.626L178.335 98.689L180.97 90.0399L182.554 87.1809L184.419 83.8044L184.916 82.9243C184.916 82.9243 185.246 85.45 186.46 84.3352L186.483 84.3138C187.668 83.359 187.725 92.7122 187.725 92.7122Z" fill="#004257"/>
<path d="M178.482 96.6089C178.482 96.6089 178.01 97.8464 177.062 97.649C176.113 97.4517 176.115 102.103 176.115 102.103C176.115 102.103 175.478 102.844 175.052 102.202C174.627 101.559 173.475 103.735 173.475 103.735L166.294 104.133C166.294 104.133 169.483 105.962 168.858 111.507C168.858 111.507 179.703 110.664 180.064 109.373C180.425 108.082 178.482 96.6089 178.482 96.6089Z" fill="#FAFAFA"/>
<path opacity="0.03" d="M178.482 96.6089C178.482 96.6089 178.01 97.8464 177.062 97.649C176.113 97.4517 176.115 102.103 176.115 102.103C176.115 102.103 175.478 102.844 175.052 102.202C174.627 101.559 173.475 103.735 173.475 103.735L166.294 104.133C166.294 104.133 169.483 105.962 168.858 111.507C168.858 111.507 179.703 110.664 180.064 109.373C180.425 108.082 178.482 96.6089 178.482 96.6089Z" fill="black"/>
<path d="M157.61 107.05L159.505 109.079L175.091 113.187L173.156 110.714L157.61 107.05Z" fill="#FAFAFA"/>
<path d="M184.44 84.4337C184.183 84.9191 183.443 87.4687 182.822 89.685C182.307 91.5306 181.876 93.1521 181.876 93.1521C181.876 93.1521 180.87 101.369 180.357 102.852C179.845 104.335 180.121 110.133 180.121 110.133L178.208 124.436C178.208 124.436 177.34 131.81 176.001 136.214C174.687 140.537 173.198 142.572 173.158 142.633C173.751 141.628 176.985 121.801 176.985 121.801L178.048 96.8059C178.048 96.8059 178.206 94.4323 178.365 92.4027C178.525 90.3731 181.718 87.6021 181.718 87.6021L184.806 82.0947C185.123 82.6361 184.914 83.5429 184.44 84.4337Z" fill="#FAFAFA"/>
<path d="M176.388 116.553C176.388 116.553 171.85 116.307 169.641 112.99C167.432 109.672 174.731 111.656 174.731 111.656L176.624 112.189L176.388 116.553Z" fill="#FABBBB"/>
<path opacity="0.1" d="M197.619 154.512C197.375 155.593 197.337 156.73 197.506 157.833C192.548 158.275 187.242 156.59 187.242 156.59C186.256 157.729 183.651 159.412 183.651 159.412L182.231 137.337C181.325 134.366 180.97 118.777 180.97 118.777C180.97 118.777 181.051 117.961 181.182 116.739C181.182 116.71 181.182 116.678 181.193 116.649C181.548 113.235 182.256 106.826 182.592 105.959C183.066 104.773 181.133 101.607 181.133 101.607L182.012 92.1977L182.118 91.0642C183.974 90.024 185.395 86.709 185.395 86.709L186.483 84.3087C187.672 83.3539 187.729 92.7071 187.729 92.7071L186.551 114.79L190.483 113.43C190.483 113.43 198.289 151.691 197.619 154.512Z" fill="black"/>
<path d="M202.709 156.046C197.304 159.411 187.478 156.294 187.478 156.294C186.492 157.432 183.887 159.115 183.887 159.115L182.467 137.04C181.561 134.072 181.206 118.483 181.206 118.483C181.206 118.483 182.35 106.853 182.822 105.666C182.96 105.319 182.894 104.804 182.73 104.25C181.924 101.606 181.627 98.7598 181.865 95.9446L182.243 91.904L182.35 90.7706C184.204 89.7304 185.624 86.4127 185.624 86.4127L186.613 84.2417L188.433 80.2412L189.294 78.3477L189.439 78.513L190.557 79.7825C190.557 79.7825 191.032 80.2732 191.742 81.028C193.29 82.6629 195.965 85.5432 197.342 87.3035C198.557 88.8583 198.939 94.8938 199.044 99.4383C199.118 102.428 199.073 104.772 199.073 104.772C197.849 107.295 201.044 127.589 201.044 127.589C201.801 131.498 202.709 156.046 202.709 156.046Z" fill="#FAFAFA"/>
<path opacity="0.03" d="M192.335 86.3646C192.335 86.3646 188.625 95.2244 189.06 98.5875C189.496 101.951 190.717 105.764 190.124 106.655C189.921 106.992 189.658 107.266 189.357 107.455C189.056 107.644 188.723 107.743 188.386 107.743C187.795 107.794 186.215 109.178 186.215 109.328C186.215 109.477 184.757 109.477 183.451 110.17C182.146 110.864 180.215 111.258 180.215 111.258C180.215 111.258 176.466 111.109 176.111 111.554C175.756 112 175.401 114.672 176.152 116.8C176.902 118.929 177.729 120.513 178.361 120.801C178.992 121.089 182.977 119.417 186.211 119.019C189.445 118.622 192.973 115.416 192.973 115.416C192.973 115.416 196.839 113.683 197.511 110.762C198.182 107.842 196.681 91.808 196.681 91.808C196.681 91.808 195.525 84.335 192.335 86.3646Z" fill="black"/>
<path opacity="0.03" d="M191.859 85.6231C191.859 85.6231 188.15 94.4802 188.584 97.846C189.018 101.212 190.241 105.023 189.647 105.914C189.444 106.251 189.182 106.525 188.881 106.714C188.579 106.902 188.247 107.001 187.91 107.002C187.319 107.053 185.741 108.437 185.741 108.586C185.741 108.735 184.281 108.733 182.977 109.426C181.674 110.12 179.741 110.514 179.741 110.514C179.741 110.514 175.992 110.368 175.637 110.813C175.282 111.258 174.927 113.931 175.677 116.059C176.428 118.187 177.255 119.771 177.887 120.059C178.518 120.348 182.503 118.673 185.739 118.278C188.976 117.883 192.49 114.667 192.49 114.667C192.49 114.667 196.356 112.936 197.028 110.016C197.7 107.095 196.199 91.0611 196.199 91.0611C196.199 91.0611 195.055 83.5935 191.859 85.6231Z" fill="black"/>
<path d="M192.214 85.9196C192.214 85.9196 188.508 94.7793 188.933 98.1318C189.358 101.484 190.589 105.309 189.996 106.199C189.794 106.537 189.531 106.811 189.23 107C188.928 107.189 188.596 107.287 188.259 107.288C187.668 107.338 186.09 108.722 186.09 108.872C186.09 109.021 184.629 109.021 183.326 109.715C182.022 110.408 180.09 110.803 180.09 110.803C180.09 110.803 176.341 110.653 175.986 111.099C175.631 111.544 175.276 114.216 176.026 116.345C176.777 118.473 177.604 120.057 178.235 120.345C178.867 120.633 182.852 118.961 186.088 118.564C189.324 118.166 192.835 114.953 192.835 114.953C192.835 114.953 196.7 113.219 197.372 110.299C198.044 107.378 196.543 91.3442 196.543 91.3442C196.543 91.3442 195.41 83.89 192.214 85.9196Z" fill="#FAFAFA"/>
<path opacity="0.1" d="M192.135 109.674C192.135 109.674 189.175 108.933 190.202 110.17C191.229 111.408 191.227 112.496 192.49 112.445C193.753 112.395 192.135 109.674 192.135 109.674Z" fill="black"/>
<path opacity="0.1" d="M197.147 136.35C197.147 136.35 195.805 137.488 198.37 140.11C200.934 142.732 197.147 136.35 197.147 136.35Z" fill="black"/>
<path opacity="0.1" d="M194.58 145.703C194.58 145.852 194.108 151.146 195.884 152.483C197.659 153.819 194.58 145.703 194.58 145.703Z" fill="black"/>
<path d="M166.409 104.127C164.98 104.188 161.886 104.738 163.489 108.488C164.908 111.805 167.289 109.589 168.622 107.903C168.297 106.336 167.505 104.984 166.409 104.127Z" fill="#FABBBB"/>
<path d="M168.646 107.874C168.667 107.85 168.686 107.823 168.705 107.799C168.686 107.823 168.667 107.85 168.646 107.874Z" fill="#FABBBB"/>
<path opacity="0.1" d="M191.742 81.1746C190.224 82.4761 188.95 83.5749 188.703 83.8043C188.021 84.4337 186.719 88.1461 185.89 90.0397C185.222 91.5652 183.06 91.9573 182.243 92.0533L182.341 90.9305C184.195 89.893 185.616 86.5753 185.616 86.5753L189.286 78.5103L190.549 79.9451C190.549 79.9451 191.032 80.4225 191.742 81.1746Z" fill="black"/>
<path d="M191.742 81.028C190.224 82.3268 188.95 83.4283 188.703 83.655C188.021 84.2871 186.719 87.9969 185.89 89.8905C185.222 91.416 183.06 91.808 182.243 91.904L182.35 90.7706C184.204 89.7304 185.624 86.4127 185.624 86.4127L189.294 78.3477L190.557 79.7825C190.557 79.7825 191.032 80.2626 191.742 81.028Z" fill="#CFE0E6"/>
<path d="M188.82 74.7101C188.821 75.2266 188.778 75.7417 188.69 76.2463C188.532 77.1894 188.226 78.0834 187.789 78.876C186.995 80.3249 185.813 81.3686 184.457 81.8179C183.102 82.2672 181.663 82.0922 180.402 81.3247C179.141 80.5573 178.141 79.2481 177.583 77.6349C177.026 76.0217 176.948 74.2112 177.363 72.532C177.779 70.8528 178.661 69.4162 179.849 68.4827C181.037 67.5493 182.452 67.1809 183.838 67.4444C185.224 67.7079 186.489 68.5858 187.403 69.9189C188.317 71.252 188.82 72.9519 188.82 74.7101Z" fill="#FABBBB"/>
<path opacity="0.1" d="M199.05 99.4385C198.248 98.8189 197.594 97.9376 197.16 96.8888C196.83 96.07 196.611 95.1286 196.046 94.5445C195.539 94.0271 194.855 93.8991 194.228 93.6671C192.15 92.8963 190.4 90.5147 190.341 87.7997C190.311 86.5222 190.628 85.2447 190.483 83.9805C190.401 83.2631 190.174 82.5843 189.822 82.0096C189.65 81.7326 189.459 81.4747 189.252 81.2388C188.975 80.9108 188.684 80.5934 188.433 80.244C188.27 80.0296 188.128 79.7925 188.008 79.5373C187.914 79.3281 187.838 79.1073 187.781 78.8785C187.394 77.3637 187.744 75.5608 187.311 74.0273C187.311 74.0006 187.296 73.9712 187.287 73.9446C187.121 73.3978 186.788 72.8538 186.326 72.8111C185.865 72.7684 185.463 73.2512 185.021 73.4699C184.093 73.9206 183.092 73.1525 182.32 72.3684C181.548 71.5843 180.676 70.6882 179.692 70.8642C179.043 70.9789 178.529 71.5363 177.931 71.8243C177.793 71.8878 177.651 71.9377 177.506 71.9737C178.014 70.3901 178.945 69.0776 180.14 68.2612C181.335 67.4447 182.719 67.1754 184.055 67.4993C185.391 67.8232 186.596 68.7202 187.462 70.0364C188.328 71.3526 188.803 73.0059 188.803 74.7127C188.805 75.2291 188.761 75.7442 188.674 76.2489C188.686 76.2809 188.697 76.3155 188.708 76.3476C188.937 77.0863 189.195 77.8571 189.422 78.5158L190.54 79.7853C190.54 79.7853 191.015 80.276 191.725 81.0308C193.273 82.6657 195.948 85.546 197.326 87.3063C198.557 88.8585 198.939 94.8939 199.05 99.4385Z" fill="black"/>
<path d="M177.876 67.2982C178.159 66.5754 178.301 65.7673 178.637 65.0846C179.133 64.0845 180 63.4577 180.887 63.0737C183.209 62.0709 188.116 60.612 189.581 63.0737C189.871 63.5617 190.109 64.1218 190.508 64.4658C190.832 64.6865 191.168 64.8756 191.514 65.0312C192.45 65.5833 193.047 66.7808 193.366 68.013C193.685 69.2451 193.779 70.5519 194.004 71.8161C194.302 73.4323 194.827 74.9658 195.348 76.4914C195.962 78.2916 196.624 80.1558 197.802 81.4307C199.42 83.1669 199.783 85.6232 201.278 87.5248C203.058 89.7864 203.001 93.5175 202.084 96.4779C201.932 96.8522 201.859 97.269 201.872 97.6887C201.958 98.1173 202.14 98.506 202.397 98.8089L203.368 100.185C202.208 100.499 200.997 100.331 199.919 99.7052C198.842 99.0796 197.956 98.0311 197.396 96.7179C197.064 95.8992 196.845 94.9577 196.279 94.3763C195.773 93.8562 195.091 93.7309 194.461 93.4962C192.384 92.7254 190.634 90.3438 190.574 87.6288C190.545 86.3539 190.861 85.0738 190.719 83.8096C190.634 83.1013 190.407 82.4316 190.06 81.8627C189.513 80.9719 188.695 80.3665 188.252 79.3904C187.504 77.7342 188.072 75.5792 187.532 73.7897C187.366 73.2563 187.034 72.6989 186.571 72.6562C186.107 72.6135 185.707 73.0989 185.265 73.315C184.338 73.7657 183.338 72.9976 182.567 72.2135C181.795 71.4294 180.921 70.5359 179.939 70.712C179.288 70.8266 178.775 71.3814 178.176 71.6694C177.733 71.8828 176.836 72.0748 176.447 71.6054C175.633 70.624 177.527 68.1756 177.876 67.2982Z" fill="#660606"/>
<path opacity="0.1" d="M197.949 95.8992C197.619 95.0804 197.4 94.139 196.834 93.5549C196.328 93.0348 195.644 92.9095 195.016 92.6775C192.939 91.9067 191.189 89.5251 191.129 86.8101C191.098 85.5326 191.417 84.2551 191.272 82.9909C191.19 82.2735 190.963 81.5947 190.611 81.02C190.066 80.1292 189.246 79.5211 188.805 78.545C188.055 76.8888 188.625 74.7339 188.085 72.9443C187.919 72.4109 187.587 71.8535 187.123 71.8108C186.66 71.7682 186.26 72.2509 185.818 72.4669C184.891 72.9203 183.889 72.1522 183.12 71.3681C182.35 70.584 181.474 69.6906 180.489 69.8639C179.851 69.9786 179.328 70.5333 178.729 70.824C178.286 71.0374 177.389 71.2294 177 70.76C176.186 69.7732 178.08 67.3249 178.423 66.4501C178.705 65.7274 178.848 64.9193 179.184 64.2365L179.241 64.1245C178.991 64.3901 178.776 64.7033 178.603 65.0526C178.263 65.7354 178.123 66.5435 177.842 67.2662C177.5 68.1437 175.605 70.592 176.42 71.5761C176.807 72.0455 177.695 71.8428 178.148 71.6401C178.746 71.3521 179.258 70.7974 179.909 70.68C180.891 70.5067 181.765 71.4001 182.537 72.1842C183.309 72.9683 184.31 73.7364 185.235 73.2857C185.68 73.0696 186.067 72.5816 186.541 72.6269C187.015 72.6723 187.338 73.2137 187.504 73.7604C188.044 75.5393 187.474 77.6942 188.223 79.3611C188.665 80.3346 189.486 80.9427 190.03 81.8334C190.382 82.4081 190.61 83.087 190.691 83.8043C190.836 85.0685 190.517 86.346 190.549 87.6235C190.615 90.3412 192.358 92.7228 194.436 93.4909C195.063 93.7229 195.748 93.8483 196.254 94.371C196.82 94.9524 197.036 95.8939 197.368 96.7126C197.928 98.0258 198.814 99.0744 199.892 99.6999C200.97 100.325 202.18 100.494 203.341 100.18L202.884 99.529C200.877 99.5717 198.859 98.1475 197.949 95.8992Z" fill="black"/>
<path opacity="0.1" d="M184.323 84.5833C184.064 85.0687 183.324 87.6184 182.705 89.832C182.126 89.552 181.599 87.7491 181.599 87.7491L184.68 82.2417C185.003 82.7858 184.795 83.6925 184.323 84.5833Z" fill="black"/>
<path d="M184.44 84.4337C184.183 84.9191 183.443 87.4687 182.822 89.685C182.243 89.405 181.718 87.6021 181.718 87.6021L184.806 82.0947C185.122 82.6361 184.914 83.5429 184.44 84.4337Z" fill="#CFE0E6"/>
<path d="M166.492 109.76L164.78 102.999C164.759 102.919 164.752 102.836 164.757 102.752C164.762 102.669 164.781 102.588 164.811 102.514C164.842 102.439 164.883 102.373 164.934 102.319C164.985 102.265 165.044 102.224 165.107 102.199C165.171 102.172 165.238 102.162 165.304 102.168C165.371 102.175 165.436 102.198 165.495 102.236C165.555 102.274 165.607 102.327 165.65 102.391C165.693 102.455 165.726 102.529 165.745 102.609L167.457 109.376L167.287 110.792L166.492 109.76Z" fill="#E70E0E"/>
<path opacity="0.1" d="M164.942 102.399C165.005 102.373 165.072 102.364 165.139 102.37C165.205 102.377 165.27 102.401 165.329 102.439C165.388 102.478 165.441 102.53 165.484 102.594C165.527 102.658 165.559 102.732 165.58 102.812L167.291 109.573L167.162 110.64L167.287 110.803L167.457 109.386L165.745 102.626C165.726 102.546 165.693 102.471 165.65 102.407C165.607 102.343 165.555 102.29 165.495 102.252C165.436 102.214 165.371 102.191 165.304 102.184C165.238 102.178 165.171 102.188 165.107 102.215C165.001 102.256 164.909 102.342 164.846 102.458C164.876 102.434 164.908 102.414 164.942 102.399Z" fill="#FAFAFA"/>
<path d="M166.492 109.76L167.453 109.375L167.312 110.538L167.283 110.792L167.002 110.424L166.492 109.76Z" fill="#E72525"/>
<path d="M167.002 110.424C167.02 110.398 167.04 110.377 167.064 110.36C167.077 110.349 167.093 110.344 167.109 110.344C167.125 110.344 167.141 110.349 167.155 110.36C167.169 110.38 167.18 110.402 167.189 110.427C167.202 110.455 167.22 110.479 167.241 110.497C167.262 110.515 167.287 110.526 167.312 110.531L167.283 110.797L167.002 110.424Z" fill="#007194"/>
<path d="M164.771 105.394C164.771 105.394 168.205 105.37 167.395 107.2C166.585 109.029 165.324 109.253 165.324 109.253L164.771 105.394Z" fill="#FABBBB"/>
</g>
<defs>
<filter id="filter0_d" x="0" y="0" width="231.004" height="232" filterUnits="userSpaceOnUse" color-interpolation-filters="sRGB">
<feFlood flood-opacity="0" result="BackgroundImageFix"/>
<feColorMatrix in="SourceAlpha" type="matrix" values="0 0 0 0 0 0 0 0 0 0 0 0 0 0 0 0 0 0 127 0"/>
<feOffset dy="4"/>
<feGaussianBlur stdDeviation="2"/>
<feColorMatrix type="matrix" values="0 0 0 0 0.960784 0 0 0 0 0.862745 0 0 0 0 0.862745 0 0 0 0.5 0"/>
<feBlend mode="normal" in2="BackgroundImageFix" result="effect1_dropShadow"/>
<feBlend mode="normal" in="SourceGraphic" in2="effect1_dropShadow" result="shape"/>
</filter>
<clipPath id="clip0">
<rect width="210" height="210" fill="white" transform="translate(11 7)"/>
</clipPath>
</defs>
</svg>
