<svg width="35" height="35" viewBox="0 0 35 35" fill="none" xmlns="http://www.w3.org/2000/svg">
<path d="M24.062 6.56237C24.062 2.93803 21.124 0 17.4997 0C13.8753 0 10.9373 2.93803 10.9373 6.56237C10.9373 10.1867 13.8753 13.1247 17.4997 13.1247C21.124 13.1247 24.062 10.1867 24.062 6.56237ZM15.9678 16.4811C11.9121 13.9984 5.34286 13.3161 2.03707 13.1282C0.926251 13.0653 0 13.9115 0 14.98V30.2102C0 31.1897 0.79227 32.0066 1.8108 32.0592C4.79532 32.2158 10.8334 32.7893 15.0066 34.8913C15.6472 35.214 16.4066 34.7744 16.4066 34.0799V17.2645C16.4059 16.9453 16.248 16.6527 15.9678 16.4811ZM32.9622 13.1282C29.6571 13.3155 23.0872 13.9984 19.0322 16.4811C18.752 16.6527 18.5941 16.9569 18.5941 17.2761V34.0779C18.5941 34.7744 19.3556 35.2146 19.9981 34.8913C24.1707 32.7914 30.2054 32.2178 33.1892 32.0613C34.2077 32.008 35 31.1911 35 30.2115V14.98C34.9993 13.9115 34.0731 13.0653 32.9622 13.1282Z" fill="#666666"/>
</svg>
