<svg width="30" height="34" viewBox="0 0 30 34" fill="white" xmlns="http://www.w3.org/2000/svg">
<path d="M21 20.1875C19.0781 20.1875 18.154 21.25 15 21.25C11.846 21.25 10.9286 20.1875 9 20.1875C4.03125 20.1875 0 24.1852 0 29.1125V30.8125C0 32.5723 1.43973 34 3.21429 34H26.7857C28.5603 34 30 32.5723 30 30.8125V29.1125C30 24.1852 25.9688 20.1875 21 20.1875ZM26.7857 30.8125H3.21429V29.1125C3.21429 25.9516 5.8125 23.375 9 23.375C9.97768 23.375 11.5647 24.4375 15 24.4375C18.4621 24.4375 20.0156 23.375 21 23.375C24.1875 23.375 26.7857 25.9516 26.7857 29.1125V30.8125ZM15 19.125C20.3237 19.125 24.6429 14.8418 24.6429 9.5625C24.6429 4.2832 20.3237 0 15 0C9.67634 0 5.35714 4.2832 5.35714 9.5625C5.35714 14.8418 9.67634 19.125 15 19.125ZM15 3.1875C18.5424 3.1875 21.4286 6.04961 21.4286 9.5625C21.4286 13.0754 18.5424 15.9375 15 15.9375C11.4576 15.9375 8.57143 13.0754 8.57143 9.5625C8.57143 6.04961 11.4576 3.1875 15 3.1875Z"/>
</svg>
